<svg xmlns="http://www.w3.org/2000/svg" version="1.1" id="Ebene_1" x="0" y="0" xml:space="preserve" width="433" height="96.4"><style id="style2">.st1{fill:#575757}</style><path d="M185.2 46.9s8.8-3 8.8-13c0-11.7-8.3-17.5-19.7-17.5h-29.9V80h32.5c10 0 19.8-7 19.8-17.7 0-12.7-11.5-15.3-11.5-15.4zM160 29.6h11.6c3.6 0 6 2.4 6 6 0 2.8-2.2 5.8-6.3 5.8h-11.4V29.6Zm11.7 37.1h-11.6V54.2h11.3c5.7 0 8.4 2.5 8.4 6.2 0 4.6-3.4 6.3-8.1 6.3zm59.4-51.9c-18.4 0-29.2 14.7-29.2 33.3 0 18.7 10.8 33.3 29.2 33.3 18.5 0 29.2-14.6 29.2-33.3 0-18.6-10.7-33.3-29.2-33.3zm0 51.4c-9 0-13.5-8.1-13.5-18.1 0-10 4.5-18 13.5-18s13.6 8.1 13.6 18c0 10-4.6 18.1-13.6 18.1zm63.1-24.9-2.2-.5c-5.4-1.1-9.7-2.5-9.7-6.4 0-4.2 4.1-5.9 7.7-5.9 5.3 0 10 2.6 13 5.9l9.9-9.8c-4.5-5.1-11.8-10-23.2-10-13.4 0-23.5 7.5-23.5 20 0 11.4 8.2 17 18.2 19.1l2.2.5c8.3 1.7 11.4 3 11.4 7 0 3.8-3.4 6.3-8.6 6.3-6.2 0-11.8-2.7-16.1-8.2l-10.1 10c5.6 6.7 12.7 11.9 26.4 11.9 11.9 0 24.6-6.8 24.6-20.7.1-14.5-10.9-17.3-20-19.2zm55.5 24.9c-7 0-14.3-5.8-14.3-18.5 0-11.3 6.8-17.6 13.9-17.6 5.6 0 8.9 2.6 11.5 7.1l12.8-8.5c-6.4-9.7-14-13.8-24.5-13.8-19.2 0-29.6 14.9-29.6 32.9 0 18.9 11.5 33.7 29.4 33.7 12.6 0 18.6-4.4 25.1-13.8L361.1 59c-2.6 4.2-5.4 7.2-11.4 7.2zm66.6-49.9v23.4H397V16.3h-16.7v63.6H397V54.8h19.3v25.1H433V16.3Z" id="path4" fill="#e20015"/><g id="_x38_7_x2F_87_x2F_87__x7C__0_x2F_0_x2F_0" transform="translate(-52.6 -71.5)"><path class="st1" d="M100.8 71.5c-26.6 0-48.2 21.6-48.2 48.2s21.6 48.2 48.2 48.2 48.2-21.6 48.2-48.2-21.6-48.2-48.2-48.2zm0 91.9c-24.1 0-43.7-19.6-43.7-43.7S76.7 76 100.8 76s43.7 19.6 43.7 43.7-19.6 43.7-43.7 43.7z" id="path6" fill="#575757"/><path class="st1" d="M120.7 89.6h-3.3v16.5H84.3V89.6h-3.4c-9.7 6.5-16.2 17.5-16.2 30.1 0 12.6 6.5 23.6 16.2 30.1h3.4v-16.5h33.1v16.5h3.3c9.8-6.5 16.2-17.5 16.2-30.1 0-12.6-6.4-23.6-16.2-30.1zm-41 53.7c-6.7-5.9-10.6-14.4-10.6-23.6 0-9.2 3.9-17.7 10.6-23.6Zm37.7-14.6H84.3v-18.1h33.1zm4.5 14.5V96.1c6.6 5.9 10.5 14.4 10.5 23.5 0 9.2-3.9 17.7-10.5 23.6z" id="path8" fill="#575757"/></g></svg>