<?xml version="1.0" encoding="utf-8"?>
<!-- Generator: Adobe Illustrator 26.5.0, SVG Export Plug-In . SVG Version: 6.00 Build 0)  -->
<svg version="1.1" id="Layer_1" xmlns="http://www.w3.org/2000/svg" xmlns:xlink="http://www.w3.org/1999/xlink" x="0px" y="0px"
	 viewBox="0 0 512 512" style="enable-background:new 0 0 512 512;" xml:space="preserve">
<style type="text/css">
	.st0{fill:url(#XMLID_00000047772303965509199060000013210154853904046750_);}
	.st1{fill:url(#XMLID_00000137096732245182467620000000277028932461532846_);}
	.st2{fill:url(#XMLID_00000061447908567687168320000013652773527902256280_);}
	.st3{fill:url(#XMLID_00000011748122544295753070000011461941670297065380_);}
	.st4{fill:url(#XMLID_00000083074017276941412440000007739366580437521314_);}
	.st5{fill:#3777C5;}
	.st6{fill:#63BBEB;}
	.st7{fill:#4980CA;}
	.st8{fill:#2F67AB;}
	.st9{fill:url(#XMLID_00000025428849577091682100000016899006681210661798_);}
	.st10{fill:url(#XMLID_00000025439043195782196150000007789402676340938686_);}
	.st11{fill:url(#XMLID_00000017514752176836538640000013726125836619861136_);}
	.st12{fill:url(#XMLID_00000067953028435858436160000001292584889384499858_);}
	.st13{fill:url(#XMLID_00000137822187433179079740000005861932646371440561_);}
	.st14{fill:#72C1ED;}
	.st15{fill:#326CB3;}
	.st16{fill:url(#XMLID_00000097469050091526090290000009904037720351155387_);}
	.st17{fill:url(#XMLID_00000060739638494038925010000016854007028464273301_);}
	.st18{fill:url(#XMLID_00000039131853482895564740000016762150972263616154_);}
	.st19{fill:url(#XMLID_00000106140716864486866480000017260480641181524123_);}
	.st20{fill:url(#XMLID_00000092417886499217430740000015778084397291439239_);}
	.st21{fill:url(#XMLID_00000001664714293450328490000007503706791610523033_);}
	.st22{fill:url(#XMLID_00000154424860439226444450000007637116181360517019_);}
	.st23{fill:url(#XMLID_00000106140742611501139630000017317761906764621984_);}
	.st24{fill:#AF0A55;}
	.st25{fill:url(#XMLID_00000045586376250670283640000011056163720388214671_);}
	.st26{fill:url(#XMLID_00000159454719153543772020000000476816779272970136_);}
	.st27{fill:url(#XMLID_00000059275211419510579950000002551657091189818248_);}
	.st28{fill:url(#XMLID_00000093163486009278485820000013601539719196050849_);}
	.st29{fill:url(#XMLID_00000036238166357015685970000011256552579986519443_);}
	.st30{fill:url(#XMLID_00000129916156016612986340000010806828512816552331_);}
	.st31{fill:url(#XMLID_00000049921507616373783240000010748115025577692306_);}
	.st32{fill:url(#XMLID_00000120529329256862102010000017268717628476463274_);}
	.st33{fill:url(#XMLID_00000096768728641326495630000003507925758431176093_);}
	.st34{fill:url(#XMLID_00000101074858537909924300000006240152803428655775_);}
	.st35{fill:url(#XMLID_00000029727618712604424060000012040153835618142603_);}
	.st36{fill:url(#XMLID_00000174588421549156896130000001409141630930340234_);}
	.st37{fill:url(#XMLID_00000079484820471628013290000009686029674690456192_);}
	.st38{fill:url(#XMLID_00000131353909028334264260000010841874191012397723_);}
	.st39{fill:url(#XMLID_00000049916473393656378000000008511415677672969638_);}
	.st40{fill:url(#XMLID_00000177446550543999674460000005162734685710579610_);}
	.st41{fill:url(#XMLID_00000176731527072130135400000004532826677755259042_);}
	.st42{fill:url(#XMLID_00000170271240587559759440000013955419441885961646_);}
	.st43{fill:url(#XMLID_00000032640673756738096710000014113759333526097808_);}
	.st44{fill:url(#XMLID_00000096036686832801754840000000000923003875537310_);}
	.st45{fill:url(#XMLID_00000070106890846219080780000009913591607887734439_);}
	.st46{fill:url(#XMLID_00000174585592613041605700000009621451400220215450_);}
	.st47{fill:url(#XMLID_00000035491345832763150210000007131147852952869277_);}
	.st48{fill:url(#XMLID_00000170246909219095642590000003250975124432199313_);}
	.st49{fill:#90C643;}
</style>
<g id="XMLID_25_">
	
		<radialGradient id="XMLID_00000011025914321886425880000011126632968898541720_" cx="-424.3705" cy="641.5103" r="1.4027" gradientTransform="matrix(265.1348 0 0 265.1348 112771.5234 -169822.6719)" gradientUnits="userSpaceOnUse">
		<stop  offset="0" style="stop-color:#C11566"/>
		<stop  offset="0.9944" style="stop-color:#AF0A55"/>
		<stop  offset="0.9944" style="stop-color:#AF0A55"/>
		<stop  offset="1" style="stop-color:#AF0A55"/>
	</radialGradient>
	<path id="XMLID_35_" style="fill:url(#XMLID_00000011025914321886425880000011126632968898541720_);" d="M47.69,256.56
		c0,16.41,15.43,18.52,23.43,18.52c21.18,0,30.72-9.82,34.93-9.82s-2.52,9.96-8.84,13.89c-52.6,31.84-95.95,59.2-95.95,84.59
		c0,11.5,10.66,12.2,18.66,12.2c8,0,47.41-5.05,107.73-98.47c2.81-4.35,7.43-6.87,11.92-10.1c4.49-3.23,18.8-13.75,21.74-13.75
		c2.81,0,2.81,1.26,2.67,2.52c-0.14,1.82-2.1,5.89-2.1,10.94c0,4.91,5.05,10.66,13.33,10.66c18.38,0,31.7-13.05,42.64-24.83
		c-3.65-0.7-7.72-1.68-12.34-2.81c-4.35,3.65-8.56,6.45-10.94,6.45c-4.21,0.14-5.47-2.24-5.61-4.49c-0.14-1.82,0.28-3.79,1.12-5.89
		c-8.42-2.24-17.67-4.77-27.63-7.86c-2.67,1.68-5.47,2.95-7.43,2.67c-0.7-0.14-0.98-0.7,0.42-2.67c0.14-0.28,0.56-0.84,1.26-1.68
		c-7.29-2.24-14.87-4.77-22.72-7.57c-15.29,14.03-32.82,28.05-42.5,28.05c-3.79,0-7.43-2.52-7.43-8.7c0-4.07,5.33-17.39,15.99-32.26
		c-8-3.23-16.13-6.87-24.41-10.66C56.39,225.56,47.69,243.66,47.69,256.56 M26.51,353.07c0-11.22,39.14-40.82,43.77-40.82
		c1.26,0,1.54,0.42,1.54,1.4c0,8.98-28.48,44.75-39.98,44.75C28.05,358.4,26.51,356.44,26.51,353.07 M374.81,261.33
		c0,6.59,1.54,17.11,12.76,17.11c22.16,0,49.66-28.05,51.06-28.2c0.98-0.14,1.12,0.28,1.12,1.12c0,0.98-3.09,12.06-35.49,51.48
		c-32.4,39.28-48.11,54.71-48.11,63.26c0,8.42,7.15,11.5,10.52,11.5c3.37,0,17.53-0.7,51.2-55.55
		c23.99-39.14,35.35-63.12,48.11-82.62C442.84,249.41,413.95,256,374.81,261.33 M240.29,257.82c0,7.86,2.67,19.22,20.9,19.22
		c10.1,0,19.5-5.47,27.35-13.33c-15.43-1.12-31.56-3.23-48.25-6.31C240.29,257.4,240.29,257.54,240.29,257.82 M308.32,264.7
		c-2.38,3.65-4.49,6.73-5.89,8.84c0,0-1.68,2.1,0.84,2.1h23.99c0.98,0,2.1-0.84,2.95-2.1c0.28-0.42,2.81-4.21,5.89-8.98
		C327.12,264.84,317.86,264.98,308.32,264.7"/>
	
		<radialGradient id="XMLID_00000043415081548939796370000011936134722636742586_" cx="-422.0694" cy="642.0766" r="1.4029" gradientTransform="matrix(112.617 0 0 112.617 47825.2188 -72093.5938)" gradientUnits="userSpaceOnUse">
		<stop  offset="0" style="stop-color:#63BBEB"/>
		<stop  offset="1" style="stop-color:#3777C5"/>
	</radialGradient>
	<path id="XMLID_118_" style="fill:url(#XMLID_00000043415081548939796370000011936134722636742586_);" d="M488.57,182.36
		c0,4.07,6.31,6.87,8.42,6.87c3.23,0,13.89-6.87,13.89-16.41c0-3.51-2.38-7.29-6.03-7.29C499.8,165.52,488.57,176.89,488.57,182.36
		 M460.24,215.32c-15.15,16.41-33.39,38.58-49.8,38.58c-6.03,0-8-3.79-8-7.72c0-2.81,2.24-5.47,6.45-6.73
		c15.57-4.63,39.84-24.83,39.84-38.58c0-3.65-1.82-7.43-6.45-7.43c-6.73,0-25.39,3.09-48.82,31c-2.67,3.09-5.47,5.19-7.57,5.19
		c-2.24,0-4.77-4.07-4.77-12.34c0-0.84,0-1.68,0.14-2.52c-16.97,6.17-34.23,10.94-51.48,14.45c-5.75,11.22-14.87,25.39-21.32,35.35
		c9.54,0.28,18.8,0.28,27.77,0c6.03-9.26,14.59-22.44,15.01-23c0.7-0.98,1.68-1.68,2.81-1.68c3.79,0-0.84,9.54,13.19,9.54
		c3.93,0,7.86-1.96,8.84-1.96c0.98,0,1.12,0.84,1.12,1.68c0,1.54-1.96,5.05-2.24,9.96c0,0.7-0.14,1.4-0.14,2.24
		c39.14-5.33,68.03-11.78,91.18-21.88c5.05-7.86,12.62-18.1,17.96-23.29c9.96-9.82,12.62-14.87,12.62-17.25
		c0-2.95-1.82-5.89-5.33-5.89C487.45,193.02,475.39,198.91,460.24,215.32 M411,227.66c0-4.49,15.15-19.08,20.2-19.08
		c0.7,0,1.68,0.56,1.68,1.4c0,5.75-15.15,19.5-19.92,19.5C411.98,229.49,411,228.79,411,227.66 M75.19,205.5
		c8.28,3.79,16.41,7.29,24.41,10.66c1.4-1.96,2.81-3.79,4.35-5.75c-8.56-2.95-16.83-5.89-24.83-8.98
		C77.85,202.7,76.45,204.1,75.19,205.5 M133.54,229.07c7.86,2.81,15.43,5.33,22.72,7.57c1.4-2.1,4.07-5.61,6.87-9.54
		c-7.43-1.68-14.73-3.51-21.88-5.33C138.87,224.16,136.21,226.54,133.54,229.07 M169.59,232.71c-1.26,1.12-4.21,3.79-7.43,5.75
		c10.1,3.09,19.36,5.75,27.63,7.86c1.54-3.93,4.49-8.42,8.14-12.91c-8.28-1.12-16.69-2.52-24.83-4.21
		C171.98,230.33,170.85,231.45,169.59,232.71 M294.58,234.82c-5.75,10.52-14.03,20.2-23.85,20.2c-3.09,0-5.05-1.68-5.19-4.63
		c-0.14-3.51,2.24-8.7,5.61-13.75c-9.26,0.42-18.38,0.56-27.35,0.42c-0.56,2.67-3.37,13.05-3.51,20.2
		c16.83,3.09,32.82,5.19,48.25,6.31c8.56-8.56,15.57-20.06,20.34-30.58C304.11,233.7,299.34,234.26,294.58,234.82 M205.36,250.11
		c4.63,1.12,8.7,1.96,12.34,2.81c6.17-6.73,11.64-12.91,16.83-16.13c-5.47-0.28-10.94-0.56-16.27-0.98
		C216.16,239.73,210.69,245.62,205.36,250.11"/>
	
		<radialGradient id="XMLID_00000034047572264938699200000003840390507001835427_" cx="-422.8784" cy="641.8751" r="1.4027" gradientTransform="matrix(142.8705 0 0 142.8705 60721.5508 -91476.7812)" gradientUnits="userSpaceOnUse">
		<stop  offset="0" style="stop-color:#90C643"/>
		<stop  offset="0.8309" style="stop-color:#5FB233"/>
		<stop  offset="0.8309" style="stop-color:#5FB233"/>
		<stop  offset="1" style="stop-color:#5FB233"/>
	</radialGradient>
	<path id="XMLID_127_" style="fill:url(#XMLID_00000034047572264938699200000003840390507001835427_);" d="M109.83,175.48
		c-12.06,8.7-22.16,17.39-30.58,25.81c7.86,3.09,16.13,6.03,24.83,8.98c4.63-5.89,10.1-11.92,16.27-17.67
		c24.27-22.3,52.46-33.24,69.86-33.24c7.29,0,16.13,1.4,17.39,1.68c0.84,0.14,1.26,0,1.54-0.7c0.56-0.84,13.61-24.13,13.61-24.13
		c0.14-0.28,0.14-0.7-0.28-0.7c-0.28-0.14-2.67-0.98-7.43-0.98C195.54,134.52,152.76,144.2,109.83,175.48 M233.7,156.97
		c0,12.34,7.43,29.18,38.44,39.56c0.7,0.28,1.54,0.42,1.54,0.98c0,1.26-14.59,21.04-27.91,23.43c-1.54,0.28-2.52-0.98-2.52-2.38
		s2.1-5.47,2.1-11.78c0-6.31-1.96-15.15-13.89-15.15c-11.5,0-24.83,5.47-58.21,37.73c8.14,1.68,16.55,3.09,24.83,4.21
		c10.38-12.62,26.37-24.97,30.3-25.11c2.52,0,3.51,0.98,3.65,2.1c0.42,4.49-6.03,7.57-9.96,10.38c-4.63,3.37-6.17,4.35-5.61,7.15
		c0.28,1.54,2.52,1.96,2.81,4.63c0.14,0.84-0.28,1.82-0.84,3.09c5.33,0.42,10.8,0.84,16.27,0.98c2.38-1.4,4.63-2.38,6.87-2.38
		c1.96,0,2.67,0.84,2.67,1.96c0,0.14,0,0.28-0.14,0.56c8.98,0.14,18.1,0,27.35-0.42c4.77-7.43,11.36-14.73,14.59-16.69
		c5.33-3.23,8.28-6.31,8.14-8.14c0-1.82-3.79-4.21-4.21-6.03c-0.42-2.1,1.26-3.23,4.91-2.24c5.33,1.4,9.12,1.54,9.26,5.33
		c0.14,3.23-3.23,15.01-9.26,25.81c4.77-0.56,9.54-1.12,14.31-1.82c4.63-10.1,7.15-19.36,7.15-24.55c0-1.12,0.42-2.52,2.38-2.52
		c2.1,0,7.72,0.56,10.24,0.84c2.81,0.28,6.31,2.52,6.31,7.57c0,3.23-2.1,8.56-5.33,14.87c17.25-3.51,34.65-8.28,51.48-14.45
		c0.7-10.94,6.03-15.29,6.03-18.94c0-2.38-0.98-3.37-3.93-3.37c-6.59,0-19.36,15.71-21.74,15.71c-1.82,0-4.07-7.15-6.17-9.96
		c-3.09-4.07-7.29-5.19-19.36-5.19c-6.03,0-9.54,0.56-14.87,0.56c-6.17,0-7.57-0.28-8.7-2.95c-1.12-2.67-19.08-50.08-60.18-50.08
		C243.38,140.55,233.7,144.62,233.7,156.97 M254.18,162.72c0-5.47,3.65-8.56,8.98-8.56c24.83,0,37.17,35.35,37.17,37.59
		c0,1.12-0.7,1.68-2.38,1.68C288.82,193.44,254.18,179.97,254.18,162.72 M161.03,202.13c-2.81,2.67-10.38,10.52-19.78,19.64
		c7.15,1.96,14.45,3.79,21.88,5.33c6.59-9.12,15.29-20.76,17.53-23.43c3.79-4.21,5.61-6.31,5.61-7.72c0-1.68-2.24-2.95-5.19-2.95
		C178.85,193.02,168.75,194.7,161.03,202.13"/>
	
		<linearGradient id="XMLID_00000096739293272617097190000011815455693140580997_" gradientUnits="userSpaceOnUse" x1="-392.5536" y1="626.1414" x2="-391.1509" y2="626.1414" gradientTransform="matrix(10.0105 8.3998 -8.3998 10.0105 9541.6123 -2717.7302)">
		<stop  offset="0" style="stop-color:#4980CA"/>
		<stop  offset="1" style="stop-color:#63BBEB"/>
	</linearGradient>
	<path id="XMLID_128_" style="fill:url(#XMLID_00000096739293272617097190000011815455693140580997_);" d="M350.12,240.85l-5.19,8
		c-2.95,4.63-7.01,10.8-10.38,15.85c0.98,0,1.96,0,2.95-0.14c2.67-4.07,6.03-9.12,9.4-14.45l5.19-7.86c0.42-0.7,1.12-1.12,1.82-1.12
		c0.28,0,0.42,0.14,0.84,1.68c0.84,2.95,2.24,7.86,12.34,7.86c2.81,0,5.47-0.98,7.29-1.54c0.56-0.14,1.26-0.42,1.54-0.42
		c0,0.14,0,0.28,0,0.42c0,0.42-0.28,1.26-0.56,2.24c-0.56,1.96-1.4,4.49-1.68,7.72c0,0.84-0.14,1.54-0.14,2.52
		c0.84-0.14,1.54-0.14,2.38-0.28c0-0.7,0-1.4,0.14-1.96c0.14-2.95,0.98-5.33,1.54-7.15c0.42-1.26,0.7-2.24,0.7-2.95
		c0-2.52-1.68-2.81-2.38-2.81c-0.56,0-1.26,0.28-2.24,0.56c-1.68,0.56-4.21,1.4-6.59,1.4c-8.42,0-9.26-3.37-10.1-6.17
		c-0.42-1.54-0.98-3.51-3.09-3.51C352.51,238.61,351.11,239.45,350.12,240.85"/>
	
		<linearGradient id="XMLID_00000129206773900045904940000006032620706843544504_" gradientUnits="userSpaceOnUse" x1="-458.3482" y1="649.1696" x2="-456.9455" y2="649.1696" gradientTransform="matrix(-11.8586 -7.0513 7.0513 -11.8586 -9724.4619 4715.5532)">
		<stop  offset="0" style="stop-color:#82C7EF"/>
		<stop  offset="1" style="stop-color:#3777C5"/>
	</linearGradient>
	<path id="XMLID_129_" style="fill:url(#XMLID_00000129206773900045904940000006032620706843544504_);" d="M293.17,234.96
		c-2.38,4.21-5.19,8.42-8.42,11.64c-4.63,4.77-9.26,7.15-14.03,7.15c-1.4,0-3.79-0.42-3.93-3.37c-0.14-3.51,2.38-8.7,5.75-13.75
		c-0.98,0-1.96,0.14-2.95,0.14c-3.09,5.05-5.33,10.1-5.33,13.75c0.14,3.51,2.52,5.75,6.31,5.75c5.33,0,10.66-2.67,15.71-7.86
		c3.65-3.79,6.87-8.7,9.54-13.61C295.14,234.68,294.15,234.82,293.17,234.96"/>
	<path id="XMLID_130_" class="st5" d="M188.67,246.04c0.84,0.14,1.54,0.42,2.24,0.56c1.4-3.65,4.35-8.14,8.42-13.05
		c-0.98-0.14-1.82-0.28-2.81-0.42C193.44,237.2,190.35,241.83,188.67,246.04"/>
	<path id="XMLID_131_" class="st6" d="M132.28,228.65c0.84,0.28,1.68,0.56,2.52,0.84c2.67-2.38,5.19-4.91,7.86-7.43
		c-0.84-0.28-1.82-0.42-2.67-0.7C137.61,223.74,134.94,226.12,132.28,228.65"/>
	<path id="XMLID_132_" class="st6" d="M217,235.52c-0.84,1.54-2.24,3.51-4.35,5.89c-2.67,2.95-5.75,5.89-8.7,8.28
		c0.98,0.28,1.96,0.42,2.81,0.7c2.81-2.52,5.47-5.19,7.57-7.43c2.52-2.81,4.21-5.33,5.19-7.29
		C218.69,235.8,217.85,235.66,217,235.52"/>
	<path id="XMLID_133_" class="st7" d="M219.39,249.41c-0.98,1.12-1.96,2.1-3.09,3.23c0.98,0.14,1.82,0.42,2.67,0.56
		c0.7-0.7,1.4-1.54,2.1-2.24c5.75-6.17,10.94-11.78,15.57-14.17c-1.4,0-2.81-0.14-4.21-0.14
		C228.37,239.59,224.02,244.36,219.39,249.41"/>
	<path id="XMLID_134_" class="st8" d="M98.47,215.6c0.7,0.28,1.54,0.56,2.24,0.98c1.4-1.96,2.81-3.93,4.35-5.89
		c-0.84-0.28-1.54-0.56-2.38-0.84C101.28,211.81,99.88,213.78,98.47,215.6"/>
	
		<linearGradient id="XMLID_00000142169568510276407860000016101477793867444355_" gradientUnits="userSpaceOnUse" x1="-412.3329" y1="644.571" x2="-410.9302" y2="644.571" gradientTransform="matrix(34.6581 0 0 34.6581 14691.8594 -22115.9395)">
		<stop  offset="0" style="stop-color:#2F67AB"/>
		<stop  offset="1" style="stop-color:#2D61A2"/>
	</linearGradient>
	<path id="XMLID_135_" style="fill:url(#XMLID_00000142169568510276407860000016101477793867444355_);" d="M447.47,201.01
		c0,13.33-24.27,33.1-39,37.45c-4.49,1.4-7.29,4.21-7.29,7.86h2.38c0-2.38,2.1-4.49,5.61-5.61c15.29-4.49,40.68-24.97,40.68-39.7
		H447.47L447.47,201.01z"/>
	
		<linearGradient id="XMLID_00000104691880884736514680000012634053719801946303_" gradientUnits="userSpaceOnUse" x1="-473.2019" y1="622.0464" x2="-471.7992" y2="622.0464" gradientTransform="matrix(-9.5262 1.2212 -1.2212 -9.5262 -3350.0549 6724.5425)">
		<stop  offset="0" style="stop-color:#63BBEB"/>
		<stop  offset="1" style="stop-color:#3777C5"/>
	</linearGradient>
	<path id="XMLID_136_" style="fill:url(#XMLID_00000104691880884736514680000012634053719801946303_);" d="M392.49,223.74
		c-2.52,2.95-5.05,4.77-6.59,4.77c-1.26,0-3.51-3.37-3.51-11.08c0-0.98,0-1.96,0.14-2.95c-0.84,0.28-1.68,0.56-2.38,0.84
		c0,0.7,0,1.4,0,2.1c0,9.26,3.09,13.47,5.89,13.47c3.23,0,6.59-3.51,8.42-5.61c2.95-3.51,5.89-6.73,8.7-9.4l-0.98-2.38
		C398.94,216.44,395.85,219.81,392.49,223.74"/>
	
		<linearGradient id="XMLID_00000024690484584525343730000010123374026983133078_" gradientUnits="userSpaceOnUse" x1="-342.3695" y1="654.2363" x2="-340.9668" y2="654.2363" gradientTransform="matrix(5.8609 0.4885 -0.4885 5.8609 2762.207 -3461.968)">
		<stop  offset="0" style="stop-color:#63BBEB"/>
		<stop  offset="1" style="stop-color:#2D61A2"/>
	</linearGradient>
	<path id="XMLID_137_" style="fill:url(#XMLID_00000024690484584525343730000010123374026983133078_);" d="M402.03,213.5l0.98,2.38
		c19.64-19.5,34.65-21.18,39.28-21.18c5.05,0,5.19,5.19,5.19,6.31h2.38c0-4.35-2.38-8.7-7.57-8.7
		C436.11,192.32,421.24,194.56,402.03,213.5"/>
	
		<linearGradient id="XMLID_00000083802069135671403310000012403042992938218130_" gradientUnits="userSpaceOnUse" x1="-509.4003" y1="703.7549" x2="-507.9976" y2="703.7549" gradientTransform="matrix(-2.967 -3.7084 3.7084 -2.967 -3697.3062 420.3631)">
		<stop  offset="0" style="stop-color:#5AAAD7"/>
		<stop  offset="1" style="stop-color:#2F67AB"/>
	</linearGradient>
	<path id="XMLID_140_" style="fill:url(#XMLID_00000083802069135671403310000012403042992938218130_);" d="M409.88,227.66
		c0,1.82,1.54,3.09,3.23,3.09c5.61,0,21.04-14.17,21.04-20.62c0-1.54-1.54-2.52-2.95-2.52
		C425.59,207.32,409.88,222.33,409.88,227.66 M412.27,227.66c0-4.07,14.73-17.96,19.08-17.96c0.14,0,0.42,0.14,0.56,0.28
		c0,5.05-14.59,18.24-18.8,18.24C412.69,228.23,412.27,228.09,412.27,227.66"/>
	
		<linearGradient id="XMLID_00000156548755575312744240000015289941940132209553_" gradientUnits="userSpaceOnUse" x1="-319.9765" y1="621.8348" x2="-318.5738" y2="621.8348" gradientTransform="matrix(4.3966 1.8319 -1.8319 4.3966 3043.1162 -1971.9501)">
		<stop  offset="0" style="stop-color:#63BBEB"/>
		<stop  offset="1" style="stop-color:#2B5C99"/>
	</linearGradient>
	<path id="XMLID_143_" style="fill:url(#XMLID_00000156548755575312744240000015289941940132209553_);" d="M487.45,182.36
		c0,4.91,6.73,8.14,9.54,8.14c3.65,0,15.01-7.29,15.01-17.67c0-4.07-2.95-8.56-7.15-8.56C498.95,164.4,487.45,176.32,487.45,182.36
		 M489.84,182.36c0-4.63,10.52-15.71,15.01-15.71c2.81,0,4.91,3.23,4.91,6.17c0,8.84-10.1,15.29-12.62,15.29
		C495.17,188.11,489.84,185.58,489.84,182.36"/>
	<path id="XMLID_144_" class="st14" d="M306.92,264.56c0.98,0,1.82,0,2.81,0.14c6.73-10.24,15.85-24.41,21.46-35.63
		c-0.98,0.14-1.96,0.42-2.95,0.56C322.35,240.99,313.09,255.3,306.92,264.56"/>
	<path id="XMLID_145_" class="st6" d="M74.06,204.94c0.7,0.28,1.54,0.7,2.24,0.98c1.26-1.4,2.67-2.81,4.07-4.21
		c-0.84-0.28-1.54-0.56-2.38-0.98C76.59,202.28,75.33,203.54,74.06,204.94"/>
	<path id="XMLID_146_" class="st15" d="M162.02,226.82c-2.95,4.07-5.47,7.57-6.87,9.4c0.84,0.28,1.54,0.56,2.38,0.7
		c1.54-2.1,4.07-5.61,7.01-9.68C163.7,227.24,162.86,226.96,162.02,226.82"/>
	<path id="XMLID_147_" class="st6" d="M242.11,239.45c-0.98,4.21-2.81,11.78-2.95,17.53c0.84,0.14,1.54,0.28,2.38,0.42
		c0.14-5.47,1.96-13.19,2.95-17.39c0.42-1.54,0.56-2.38,0.7-2.95c-0.84,0-1.54,0-2.38,0C242.53,237.62,242.25,238.47,242.11,239.45"
		/>
	<path id="XMLID_148_" class="st7" d="M307.48,233.14c-2.24,4.77-4.91,9.82-8,14.73c-2.95,4.49-7.15,10.38-12.48,15.57
		c0.98,0.14,1.96,0.14,3.09,0.28c8.56-8.84,15.57-20.34,20.2-30.86C309.3,232.85,308.46,233,307.48,233.14"/>
	
		<linearGradient id="XMLID_00000183219264798274766440000007626832406271971202_" gradientUnits="userSpaceOnUse" x1="-448.9257" y1="619.8074" x2="-447.5229" y2="619.8074" gradientTransform="matrix(-14.2895 8.0608 -8.0608 -14.2895 -931.4482 12679.2529)">
		<stop  offset="0" style="stop-color:#63BBEB"/>
		<stop  offset="1" style="stop-color:#2F67AB"/>
	</linearGradient>
	<path id="XMLID_149_" style="fill:url(#XMLID_00000183219264798274766440000007626832406271971202_);" d="M459.26,214.62
		l-4.63,5.19c-14.03,15.43-30.02,32.96-44.33,32.96c-5.61,0-6.73-3.51-6.73-6.59h-2.38c0,5.19,2.95,8.28,7.86,8.84
		c5.05,0.14,8.42-0.84,14.03-3.51c11.36-6.03,22.86-18.66,33.39-30.16l4.63-5.19c15.15-16.41,26.93-22.02,30.02-22.02v-2.38
		C486.89,191.89,474.55,198.07,459.26,214.62"/>
	
		<linearGradient id="XMLID_00000136394934850879259820000002259950131618919329_" gradientUnits="userSpaceOnUse" x1="-294.6008" y1="519.4771" x2="-293.1981" y2="519.4771" gradientTransform="matrix(1.5759 2.3638 -2.3638 1.5759 2165.5342 85.1335)">
		<stop  offset="0" style="stop-color:#63BBEB"/>
		<stop  offset="1" style="stop-color:#2B5C99"/>
	</linearGradient>
	<path id="XMLID_150_" style="fill:url(#XMLID_00000136394934850879259820000002259950131618919329_);" d="M490.96,194.14
		c2.95,0,4.21,2.38,4.21,4.77c0,0.98-0.84,5.33-12.2,16.41c-5.75,5.61-13.47,16.41-19.08,24.97c1.4-0.56,2.67-1.12,3.93-1.68
		c4.77-7.01,11.78-16.83,16.69-21.6c8.42-8.28,12.91-14.45,12.91-18.1c0-3.51-2.24-7.15-6.59-7.15v2.38H490.96z"/>
	
		<linearGradient id="XMLID_00000101786819142749459560000006613400896407358869_" gradientUnits="userSpaceOnUse" x1="-395.8734" y1="650.6306" x2="-394.4706" y2="650.6306" gradientTransform="matrix(13.6872 0 0 13.6872 5605.9541 -8653.376)">
		<stop  offset="0" style="stop-color:#AF0A55"/>
		<stop  offset="1" style="stop-color:#DB4990"/>
	</linearGradient>
	<path id="XMLID_151_" style="fill:url(#XMLID_00000101786819142749459560000006613400896407358869_);" d="M187.55,252.35
		c0.28,3.51,2.81,5.61,6.87,5.47c2.95,0,7.72-3.37,12.34-7.43c-0.98-0.28-1.82-0.42-2.81-0.7c-4.07,3.37-7.72,5.61-9.54,5.75
		c-2.81,0-4.21-1.12-4.49-3.37c-0.14-1.54,0.28-3.37,1.12-5.47c-0.7-0.14-1.54-0.42-2.24-0.56
		C187.83,248.28,187.41,250.39,187.55,252.35"/>
	
		<linearGradient id="XMLID_00000096047698778370102430000015961936945720810425_" gradientUnits="userSpaceOnUse" x1="-373.4179" y1="657.7506" x2="-372.0152" y2="657.7506" gradientTransform="matrix(7.6528 0 0 7.6528 3010.5962 -4794.3662)">
		<stop  offset="0" style="stop-color:#A2094D"/>
		<stop  offset="1" style="stop-color:#D73585"/>
	</linearGradient>
	<path id="XMLID_152_" style="fill:url(#XMLID_00000096047698778370102430000015961936945720810425_);" d="M154.02,237.76
		c-1.12,1.54-1.4,2.67-0.98,3.51c0.28,0.56,0.7,0.98,1.4,0.98c2.67,0.42,6.17-1.4,9.12-3.37c-0.98-0.28-1.96-0.56-2.95-0.98
		c-1.82,1.12-3.79,1.82-5.19,1.96c0.14-0.28,0.28-0.42,0.56-0.84c0.14-0.28,0.7-0.98,1.4-2.1c-0.84-0.28-1.54-0.56-2.38-0.7
		C154.58,236.92,154.16,237.48,154.02,237.76"/>
	
		<linearGradient id="XMLID_00000047762965163875146440000012872478097319169965_" gradientUnits="userSpaceOnUse" x1="-367.4386" y1="603.4223" x2="-366.0358" y2="603.4223" gradientTransform="matrix(3.2979 4.7635 -4.7635 3.2979 4133.9741 92.7761)">
		<stop  offset="0" style="stop-color:#AF0A55"/>
		<stop  offset="1" style="stop-color:#DB4990"/>
	</linearGradient>
	<path id="XMLID_155_" style="fill:url(#XMLID_00000047762965163875146440000012872478097319169965_);" d="M70.14,310.99
		c-3.09,0-15.01,8.56-24.41,16.55c-7.72,6.45-20.62,18.52-20.62,25.53c0,4.21,2.24,6.59,6.45,6.59c5.33,0,12.91-6.45,18.38-11.92
		c10.8-10.8,22.86-27.77,22.86-34.09c0-0.56-0.14-1.26-0.7-1.96C71.82,311.27,71.12,310.99,70.14,310.99L70.14,310.99 M27.63,353.07
		c0-10.38,38.15-39.56,42.64-39.7h0.28v0.14l0,0c0,5.05-10.94,21.04-22.16,32.4c-7.15,7.15-13.19,11.22-16.69,11.22
		C28.9,357.28,27.63,356.02,27.63,353.07"/>
	
		<linearGradient id="XMLID_00000160148665619218190250000009603046437249093296_" gradientUnits="userSpaceOnUse" x1="-403.4107" y1="633.0267" x2="-402.008" y2="633.0267" gradientTransform="matrix(13.4282 10.3009 -10.3009 13.4282 12031.6953 -4114.543)">
		<stop  offset="0" style="stop-color:#A2094D"/>
		<stop  offset="1" style="stop-color:#DB4990"/>
	</linearGradient>
	<path id="XMLID_156_" style="fill:url(#XMLID_00000160148665619218190250000009603046437249093296_);" d="M82.48,248.43
		c0,7.29,4.63,9.96,8.7,9.96c9.82,0,26.65-13.05,43.77-28.9c-0.84-0.28-1.68-0.56-2.52-0.84C117.41,242.39,100.44,256,91.18,256
		c-3.93,0-6.31-2.81-6.31-7.57c0-4.07,5.47-17.25,15.99-31.84c-0.7-0.28-1.54-0.56-2.24-0.98
		C87.81,230.61,82.48,243.94,82.48,248.43"/>
	
		<linearGradient id="XMLID_00000179648427858927032950000013439355957127971743_" gradientUnits="userSpaceOnUse" x1="-409.4053" y1="662.3285" x2="-408.0026" y2="662.3285" gradientTransform="matrix(12.9455 -7.8165 7.8165 12.9455 203.04 -11471.7578)">
		<stop  offset="0" style="stop-color:#DB4990"/>
		<stop  offset="1" style="stop-color:#AF0A55"/>
	</linearGradient>
	<path id="XMLID_157_" style="fill:url(#XMLID_00000179648427858927032950000013439355957127971743_);" d="M0,363.87h2.38
		c0-24.13,39.56-49.8,95.39-83.6l-1.26-1.96C39.98,312.39,0,338.48,0,363.87"/>
	
		<linearGradient id="XMLID_00000157272796494431877160000007061711718739282059_" gradientUnits="userSpaceOnUse" x1="-365.1256" y1="598.4631" x2="-363.7228" y2="598.4631" gradientTransform="matrix(3.1748 4.3957 -4.3957 3.1748 3865.5588 -40.5938)">
		<stop  offset="0" style="stop-color:#DB4990"/>
		<stop  offset="1" style="stop-color:#AF0A55"/>
	</linearGradient>
	<path id="XMLID_158_" style="fill:url(#XMLID_00000157272796494431877160000007061711718739282059_);" d="M46.43,256.56
		c0,12.48,8.98,19.64,24.55,19.64v-2.38c-8.28,0-22.3-2.24-22.3-17.39c0-11.78,7.72-29.74,27.49-50.64c-0.7-0.28-1.54-0.7-2.24-0.98
		C54.15,226.12,46.43,244.5,46.43,256.56"/>
	<path id="XMLID_159_" class="st24" d="M97.77,280.27c5.19-3.37,11.5-11.22,10.52-14.45c-0.28-0.98-1.12-1.68-2.38-1.68
		c-1.54,0-3.51,0.98-6.03,2.38c-5.33,2.81-14.31,7.43-28.76,7.43v2.38c15.01,0,24.27-4.77,29.88-7.72c2.24-1.12,4.07-2.1,5.05-2.1
		c0.14,0,0.14,0.14,0.14,0.28c0,1.68-4.21,8.14-9.68,11.5"/>
	
		<linearGradient id="XMLID_00000036250256021338773690000011949693823579213732_" gradientUnits="userSpaceOnUse" x1="-495.7774" y1="646.6738" x2="-494.3747" y2="646.6738" gradientTransform="matrix(-5.6784 -2.3813 2.3813 -5.6784 -4176.6211 2750.5852)">
		<stop  offset="0" style="stop-color:#A2094D"/>
		<stop  offset="1" style="stop-color:#DF5E9C"/>
	</linearGradient>
	<path id="XMLID_160_" style="fill:url(#XMLID_00000036250256021338773690000011949693823579213732_);" d="M175.06,276.62
		c-7.86,0-12.06-5.61-12.06-9.54h-2.38c0,5.75,5.75,11.92,14.45,11.92c19.08,0,32.82-13.75,44.05-25.67
		c-0.84-0.14-1.82-0.42-2.67-0.56C205.78,264,192.6,276.62,175.06,276.62"/>
	
		<linearGradient id="XMLID_00000130612260717778855450000014839025634996666531_" gradientUnits="userSpaceOnUse" x1="-360.992" y1="632.1151" x2="-359.5893" y2="632.1151" gradientTransform="matrix(5.3144 2.932 -2.932 5.3144 3817.2241 -2008.7604)">
		<stop  offset="0" style="stop-color:#DB4990"/>
		<stop  offset="1" style="stop-color:#A2094D"/>
	</linearGradient>
	<path id="XMLID_161_" style="fill:url(#XMLID_00000130612260717778855450000014839025634996666531_);" d="M139.85,265.68l-0.98,0.7
		l-2.67,1.96c-3.65,2.52-7.15,4.91-9.54,8.56c-60.18,93.28-99.45,97.91-106.75,97.91c-10.52,0-17.53-1.82-17.53-11.08H0
		c0,13.47,13.47,13.47,19.78,13.47c4.35,0,16.41-1.4,34.93-14.45c23.29-16.41,48.11-44.89,73.78-84.59c2.1-3.23,5.33-5.47,8.84-7.86
		l2.81-1.96l0.98-0.7c14.59-10.52,18.66-12.62,19.92-12.76c0.98-0.14,1.26,0.14,1.4,0.14l1.68-1.68c-0.7-0.7-1.4-0.84-3.09-0.84
		C159.07,252.49,153.04,256.14,139.85,265.68"/>
	
		<linearGradient id="XMLID_00000166658113756338784870000012952797132799322246_" gradientUnits="userSpaceOnUse" x1="-469.7908" y1="630.6268" x2="-468.3881" y2="630.6268" gradientTransform="matrix(-10.0751 -0.7328 0.7328 -10.0751 -4933.7505 6277.8311)">
		<stop  offset="0" style="stop-color:#A2094D"/>
		<stop  offset="1" style="stop-color:#DF5E9C"/>
	</linearGradient>
	<path id="XMLID_162_" style="fill:url(#XMLID_00000166658113756338784870000012952797132799322246_);" d="M239.03,257.82
		c0,13.33,7.72,20.34,22.16,20.34c10.66,0,20.48-5.89,28.76-14.45c-0.98-0.14-1.96-0.14-3.09-0.28
		c-7.01,6.73-15.71,12.34-25.81,12.34c-13.33,0-19.78-5.89-19.78-17.96v-0.42c-0.84-0.14-1.54-0.28-2.38-0.42
		C239.17,257.26,239.03,257.54,239.03,257.82"/>
	
		<linearGradient id="XMLID_00000150061099163421184210000005620430041084775854_" gradientUnits="userSpaceOnUse" x1="-469.1709" y1="667.9937" x2="-467.7681" y2="667.9937" gradientTransform="matrix(-6.0692 -6.9887 6.9887 -6.0692 -7194.5879 1048.0168)">
		<stop  offset="0" style="stop-color:#A2094D"/>
		<stop  offset="1" style="stop-color:#DB4990"/>
	</linearGradient>
	<path id="XMLID_163_" style="fill:url(#XMLID_00000150061099163421184210000005620430041084775854_);" d="M334.69,264.7
		c-2.95,4.49-5.19,7.86-5.33,8.28c-0.84,1.12-1.54,1.54-1.96,1.54h-23.99l0,0l0.14-0.14l0,0l3.93-6.03c0.7-1.12,1.54-2.24,2.24-3.51
		c-0.98,0-1.82,0-2.81-0.14c-0.56,0.84-0.98,1.54-1.54,2.24l-3.93,6.03c-0.28,0.28-0.7,0.98-0.7,1.96c0,0.28,0,0.56,0.14,0.84
		c0.28,0.56,0.84,1.12,2.38,1.12h23.99c1.4,0,2.67-0.84,3.93-2.52c0.28-0.42,2.81-4.21,6.31-9.68
		C336.66,264.56,335.68,264.56,334.69,264.7"/>
	
		<linearGradient id="XMLID_00000148622698253814022410000007557109413845159042_" gradientUnits="userSpaceOnUse" x1="-536.7967" y1="701.0715" x2="-535.394" y2="701.0715" gradientTransform="matrix(-2.748 -2.748 2.748 -2.748 -3014.8933 729.6969)">
		<stop  offset="0" style="stop-color:#C01F6E"/>
		<stop  offset="1" style="stop-color:#D63384"/>
	</linearGradient>
	<path id="XMLID_164_" style="fill:url(#XMLID_00000148622698253814022410000007557109413845159042_);" d="M373.69,261.47v0.14
		c0,4.91,0.84,10.52,4.35,14.31c2.38,2.52,5.61,3.79,9.54,3.79v-2.38c-3.37,0-6.03-0.98-7.86-3.09c-3.23-3.37-3.79-9.12-3.79-13.19
		C375.23,261.19,374.39,261.33,373.69,261.47"/>
	
		<linearGradient id="XMLID_00000175309447311195736320000006885626749414930109_" gradientUnits="userSpaceOnUse" x1="-458.6775" y1="700.9254" x2="-457.2747" y2="700.9254" gradientTransform="matrix(-1.0989 -6.1662 6.1662 -1.0989 -4662.5625 -1792.8591)">
		<stop  offset="0" style="stop-color:#DF5E9C"/>
		<stop  offset="1" style="stop-color:#A2094D"/>
	</linearGradient>
	<path id="XMLID_165_" style="fill:url(#XMLID_00000175309447311195736320000006885626749414930109_);" d="M163.42,254.18
		l-0.84,0.84c0.14,0.14,0.14,0.42,0.14,0.7c0,0.28-0.14,0.56-0.14,0.98c0,0.28-0.28,1.26-0.56,2.38c-0.56,1.96-1.4,4.77-1.4,8H163
		c0-2.95,0.7-5.33,1.26-7.43c0.42-1.26,0.56-2.1,0.7-3.09v-0.7c0-0.98,0-1.82-0.84-2.67L163.42,254.18z"/>
	
		<linearGradient id="XMLID_00000025410042183320244570000018066713299071861653_" gradientUnits="userSpaceOnUse" x1="-420.4537" y1="655.2808" x2="-419.051" y2="655.2808" gradientTransform="matrix(20.3347 -25.1764 25.1764 20.3347 -7551.5581 -23592.7383)">
		<stop  offset="0" style="stop-color:#DF5E9C"/>
		<stop  offset="1" style="stop-color:#A2094D"/>
	</linearGradient>
	<path id="XMLID_166_" style="fill:url(#XMLID_00000025410042183320244570000018066713299071861653_);" d="M403.29,302.01
		c-8.56,10.52-15.85,19.08-22.3,26.65c-17.81,21.04-25.95,30.72-25.95,37.31c0,3.37,1.12,6.03,2.67,8l1.54-1.96
		c-0.98-1.54-1.82-3.51-1.82-6.03c0-5.75,8.56-15.85,25.39-35.77c6.45-7.57,13.75-16.13,22.3-26.65
		c11.5-14.03,19.36-24.41,24.69-32.12l-2.38-0.56C422.08,278.3,414.37,288.4,403.29,302.01"/>
	
		<linearGradient id="XMLID_00000034771908930733132950000010948324585857925005_" gradientUnits="userSpaceOnUse" x1="-325.968" y1="637.5624" x2="-324.5652" y2="637.5624" gradientTransform="matrix(4.6382 1.6095 -1.6095 4.6382 2924.6265 -2134.3525)">
		<stop  offset="0" style="stop-color:#DF5E9C"/>
		<stop  offset="1" style="stop-color:#A2094D"/>
	</linearGradient>
	<path id="XMLID_167_" style="fill:url(#XMLID_00000034771908930733132950000010948324585857925005_);" d="M464.03,240.29
		c-6.03,9.26-9.68,16.41-16.97,29.46c-8.42,14.87-17.81,31.7-30.16,51.62c-29.46,47.83-44.05,54.99-50.08,54.99
		c-1.68,0-5.33-1.12-7.57-4.35l-1.54,1.96c2.67,3.37,6.59,4.77,9.12,4.77c11.5,0,29.6-19.36,52.18-56.11
		c12.34-20.06,21.88-36.89,30.16-51.76c8.14-14.45,12.34-22.58,18.94-32.4C466.69,239.17,465.29,239.73,464.03,240.29"/>
	
		<linearGradient id="XMLID_00000013908948108574520250000018361273230578366643_" gradientUnits="userSpaceOnUse" x1="-413.6279" y1="644.5646" x2="-412.2252" y2="644.5646" gradientTransform="matrix(37.9711 0 0 37.9711 16093.499 -24210.5508)">
		<stop  offset="0" style="stop-color:#C01F6E"/>
		<stop  offset="1" style="stop-color:#A2094D"/>
	</linearGradient>
	<path id="XMLID_168_" style="fill:url(#XMLID_00000013908948108574520250000018361273230578366643_);" d="M438.5,248.99
		c-0.42,0.14-0.98,0.42-3.65,2.81c-8,7.01-29.46,25.53-47.13,25.53v2.38c18.52,0,40.4-18.94,48.68-26.09
		c0.84-0.7,1.54-1.26,2.1-1.82c-0.56,1.54-2.52,6.73-11.08,18.94l2.38,0.56c10.94-15.85,11.08-20.06,11.08-20.06
		c0-0.42,0-1.4-0.7-1.96c-0.42-0.28-0.84-0.42-1.26-0.42C438.78,248.99,438.5,248.99,438.5,248.99"/>
	
		<linearGradient id="XMLID_00000158735166120124854970000000272392284685107609_" gradientUnits="userSpaceOnUse" x1="-293.7676" y1="585.2912" x2="-292.3649" y2="585.2912" gradientTransform="matrix(2.5651 2.0154 -2.0154 2.5651 2257.0205 -686.1118)">
		<stop  offset="0" style="stop-color:#5FB233"/>
		<stop  offset="1" style="stop-color:#90C643"/>
	</linearGradient>
	<path id="XMLID_169_" style="fill:url(#XMLID_00000158735166120124854970000000272392284685107609_);" d="M314.77,208.45
		c0,5.19-2.67,14.59-7.29,24.83c0.98-0.14,1.82-0.28,2.81-0.42c4.49-9.96,6.87-19.08,6.87-24.41c0-0.98,0.28-1.26,1.26-1.26
		c1.68,0,6.31,0.42,8.98,0.7l1.12,0.14c1.96,0.14,5.33,1.82,5.33,6.45c0,3.23-2.24,8.7-5.61,15.15c0.98-0.14,1.96-0.42,2.95-0.56
		c3.09-6.17,5.05-11.36,5.05-14.59c0-5.61-3.79-8.42-7.43-8.84l-1.12-0.14c-2.95-0.28-7.43-0.7-9.26-0.7
		C316.18,204.8,314.77,206.06,314.77,208.45"/>
	
		<linearGradient id="XMLID_00000128444311187811439700000002443155855445172632_" gradientUnits="userSpaceOnUse" x1="-355.07" y1="689.3394" x2="-353.6672" y2="689.3394" gradientTransform="matrix(4.9465 -1.832 1.832 4.9465 775.3209 -3887.2686)">
		<stop  offset="0" style="stop-color:#5FB233"/>
		<stop  offset="1" style="stop-color:#90C643"/>
	</linearGradient>
	<path id="XMLID_172_" style="fill:url(#XMLID_00000128444311187811439700000002443155855445172632_);" d="M253.05,162.72
		c0,18.38,35.49,31.84,44.89,31.84c3.23,0,3.65-1.82,3.65-2.95c0-2.38-12.34-38.72-38.44-38.72
		C256.98,152.9,253.05,156.83,253.05,162.72 M255.44,162.72c0-4.63,2.95-7.43,7.72-7.43c23.57,0,35.91,34.09,36.05,36.33
		c0,0.28,0,0.56-1.26,0.56C289.67,192.18,255.44,178.99,255.44,162.72"/>
	
		<linearGradient id="XMLID_00000171695625458790462890000002862772381709255852_" gradientUnits="userSpaceOnUse" x1="-257.4178" y1="606.2444" x2="-256.015" y2="606.2444" gradientTransform="matrix(2.2809 1.224 -1.224 2.2809 1567.9178 -832.2373)">
		<stop  offset="0" style="stop-color:#5FB233"/>
		<stop  offset="1" style="stop-color:#90C643"/>
	</linearGradient>
	<path id="XMLID_173_" style="fill:url(#XMLID_00000171695625458790462890000002862772381709255852_);" d="M232.57,236.64
		c1.4,0,2.81,0.14,4.21,0.14c1.54-0.84,3.09-1.26,4.63-1.26c1.4,0,1.4,0.56,1.4,0.84c0,0.14,0,0.28-0.14,0.56c0.84,0,1.54,0,2.38,0
		c0-0.28,0.14-0.42,0.14-0.56c0-0.7-0.28-3.23-3.79-3.23C238.47,233.28,235.52,234.54,232.57,236.64"/>
	
		<linearGradient id="XMLID_00000169556631834756915550000007473871100754242453_" gradientUnits="userSpaceOnUse" x1="-288.4079" y1="614.3925" x2="-287.0051" y2="614.3925" gradientTransform="matrix(2.9317 1.4659 -1.4659 2.9317 2038.2982 -1154.8037)">
		<stop  offset="0" style="stop-color:#5FB233"/>
		<stop  offset="1" style="stop-color:#90C643"/>
	</linearGradient>
	<path id="XMLID_174_" style="fill:url(#XMLID_00000169556631834756915550000007473871100754242453_);" d="M289.39,202.98
		c-0.7,0.7-0.98,1.82-0.84,2.95c0.28,1.12,1.26,2.24,2.38,3.37c0.7,0.7,1.82,1.96,1.82,2.38c0,0.98-1.96,3.79-7.57,7.15
		c-3.51,2.1-10.52,9.82-15.43,17.81c0.98,0,1.96-0.14,2.95-0.14c4.63-7.01,10.8-13.89,13.75-15.57c5.61-3.37,8.84-6.73,8.7-9.26
		c0-1.4-1.26-2.67-2.52-3.93c-0.7-0.7-1.68-1.68-1.68-2.24c-0.14-0.42,0-0.7,0.14-0.84c0.28-0.28,1.4-0.56,3.37,0l2.38,0.56
		c4.49,0.98,5.89,1.54,6.03,3.79c0.14,2.81-3.23,14.87-9.4,25.95c0.98-0.14,1.96-0.14,2.81-0.28c5.75-10.8,9.12-22.3,8.98-25.67
		c-0.14-4.21-3.65-5.05-7.86-5.89l-2.38-0.56c-0.98-0.28-1.96-0.42-2.67-0.42C290.79,201.99,289.81,202.56,289.39,202.98"/>
	
		<linearGradient id="XMLID_00000082353994621218054270000018358948674610935702_" gradientUnits="userSpaceOnUse" x1="-493.4613" y1="638.2974" x2="-492.0585" y2="638.2974" gradientTransform="matrix(-6.1362 -1.534 1.534 -6.1362 -3828.4182 3370.7341)">
		<stop  offset="0" style="stop-color:#5FB233"/>
		<stop  offset="1" style="stop-color:#90C643"/>
	</linearGradient>
	<path id="XMLID_175_" style="fill:url(#XMLID_00000082353994621218054270000018358948674610935702_);" d="M160.33,201.29
		l-4.35,4.35c-3.79,3.93-9.4,9.54-15.85,15.71c0.84,0.28,1.82,0.42,2.67,0.7c5.05-4.91,10.1-9.96,14.87-14.73l4.35-4.35
		c7.43-7.29,17.25-8.84,19.36-8.84c2.38,0,3.93,0.98,3.93,1.82h2.38c0-2.52-3.23-4.07-6.31-4.07
		C178.85,191.89,168.33,193.44,160.33,201.29"/>
	
		<linearGradient id="XMLID_00000125585545269935551920000005769090099415808160_" gradientUnits="userSpaceOnUse" x1="-403.8282" y1="647.5806" x2="-402.4255" y2="647.5806" gradientTransform="matrix(18.2664 0 0 18.2664 7538.4419 -11617.3633)">
		<stop  offset="0" style="stop-color:#529B2B"/>
		<stop  offset="0.8297" style="stop-color:#5FB233"/>
		<stop  offset="0.8297" style="stop-color:#5FB233"/>
		<stop  offset="1" style="stop-color:#5FB233"/>
	</linearGradient>
	<path id="XMLID_176_" style="fill:url(#XMLID_00000125585545269935551920000005769090099415808160_);" d="M185.16,195.96
		c0,0.84-1.82,2.95-4.49,5.89l-0.84,0.98c-2.38,2.67-11.22,14.73-17.96,23.85c0.84,0.14,1.68,0.42,2.52,0.56
		c6.59-8.98,15.01-20.34,17.11-22.86l0.84-0.98c3.51-3.93,5.05-5.75,5.05-7.43L185.16,195.96z"/>
	
		<linearGradient id="XMLID_00000062160374520694773810000014651721518254321582_" gradientUnits="userSpaceOnUse" x1="-414.1547" y1="644.4894" x2="-412.752" y2="644.4894" gradientTransform="matrix(32.7562 0 0 32.7562 13668.9033 -20920.041)">
		<stop  offset="0" style="stop-color:#529B2B"/>
		<stop  offset="0.0396" style="stop-color:#529B2B"/>
		<stop  offset="0.8309" style="stop-color:#5AAB30"/>
		<stop  offset="0.8309" style="stop-color:#5AAB30"/>
		<stop  offset="1" style="stop-color:#5AAB30"/>
	</linearGradient>
	<path id="XMLID_177_" style="fill:url(#XMLID_00000062160374520694773810000014651721518254321582_);" d="M119.37,191.75
		c-6.31,5.89-11.92,12.06-16.69,18.1c0.84,0.28,1.54,0.56,2.38,0.84c4.63-5.75,9.82-11.64,15.85-17.25
		c9.12-8.28,18.52-15.01,27.63-20.06l-1.12-2.1C138.31,176.46,128.63,183.34,119.37,191.75"/>
	
		<linearGradient id="XMLID_00000091002994520996846910000008936836371058531475_" gradientUnits="userSpaceOnUse" x1="-418.3342" y1="643.2515" x2="-416.9315" y2="643.2515" gradientTransform="matrix(53.2065 0 0 53.2065 22429.9375 -34015.2383)">
		<stop  offset="0" style="stop-color:#90C643"/>
		<stop  offset="1" style="stop-color:#56A32E"/>
	</linearGradient>
	<path id="XMLID_178_" style="fill:url(#XMLID_00000091002994520996846910000008936836371058531475_);" d="M171.84,228.93
		c0.98,0.14,1.82,0.42,2.81,0.56c31.84-30.58,45.17-36.75,56.81-36.75c5.05,0,8.7,1.68,10.66,5.05c1.4,2.24,1.96,5.19,1.96,8.84
		c0,4.07-0.84,7.29-1.54,9.26c-0.28,1.12-0.56,1.82-0.56,2.52c0,1.12,0.42,2.24,1.26,2.95l1.54-1.82c-0.28-0.28-0.42-0.7-0.42-1.12
		c0-0.28,0.28-1.12,0.42-1.82c0.7-2.24,1.54-5.47,1.54-9.96c0-3.51-0.56-6.45-1.68-8.84c-2.24-4.91-6.87-7.43-13.33-7.43
		C218.97,190.35,205.08,196.66,171.84,228.93"/>
	
		<linearGradient id="XMLID_00000109002638278476934730000017709896140302570905_" gradientUnits="userSpaceOnUse" x1="-411.4106" y1="663.7335" x2="-410.0078" y2="663.7335" gradientTransform="matrix(12.4226 -10.9703 10.9703 12.4226 -1919.5823 -12539.9404)">
		<stop  offset="0" style="stop-color:#56A32E"/>
		<stop  offset="0.5" style="stop-color:#83B43C"/>
		<stop  offset="0.5" style="stop-color:#83B43C"/>
		<stop  offset="1" style="stop-color:#5AAB30"/>
	</linearGradient>
	<path id="XMLID_179_" style="fill:url(#XMLID_00000109002638278476934730000017709896140302570905_);" d="M272.27,197.79
		c-2.1,3.51-14.87,19.92-26.65,22.02c-0.28,0-0.56,0-0.7-0.14l-1.54,1.82c0.7,0.56,1.68,0.84,2.67,0.7
		c13.75-2.38,28.9-22.44,28.9-24.55L272.27,197.79L272.27,197.79z"/>
	
		<linearGradient id="XMLID_00000127023041050086265510000009780558347390525063_" gradientUnits="userSpaceOnUse" x1="-442.6762" y1="641.8176" x2="-441.2735" y2="641.8176" gradientTransform="matrix(-27.6966 -8.4422 8.4422 -27.6966 -17294.8184 14243.0371)">
		<stop  offset="0" style="stop-color:#56A32E"/>
		<stop  offset="0.2986" style="stop-color:#90C643"/>
		<stop  offset="0.6648" style="stop-color:#59A72F"/>
		<stop  offset="1" style="stop-color:#90C643"/>
	</linearGradient>
	<path id="XMLID_180_" style="fill:url(#XMLID_00000127023041050086265510000009780558347390525063_);" d="M367.1,202.56
		c-1.96,1.82-4.35,4.07-5.19,4.49c-0.7-0.42-1.82-3.09-2.67-4.63c-0.84-1.82-1.68-3.65-2.67-4.91c-3.37-4.35-7.72-5.61-20.34-5.61
		c-3.09,0-5.61,0.14-8,0.28l0.14,2.38c2.38-0.14,4.77-0.28,7.86-0.28c11.92,0,15.71,0.98,18.52,4.63c0.7,0.98,1.54,2.81,2.38,4.49
		c1.54,3.37,2.81,6.03,4.77,6.03c1.26,0,2.67-1.26,6.87-5.19c4.49-4.21,11.08-10.38,14.73-10.38c2.38,0,2.67,0.7,2.67,2.24
		c0,1.12-0.7,2.52-1.68,4.21c-1.68,3.23-4.07,7.86-4.49,15.15c0.84-0.28,1.68-0.56,2.38-0.84c0.56-6.17,2.52-10.1,4.07-13.19
		c1.12-2.1,1.96-3.65,1.96-5.33c0-1.26-0.28-2.38-0.84-3.09c-0.84-0.98-2.24-1.54-4.21-1.54
		C378.88,191.47,372.29,197.65,367.1,202.56"/>
	
		<linearGradient id="XMLID_00000003081935104481212870000013414467788796629437_" gradientUnits="userSpaceOnUse" x1="-388.8346" y1="650.522" x2="-387.4318" y2="650.522" gradientTransform="matrix(12.0523 0 0 12.0523 4997.8315 -7647.7607)">
		<stop  offset="0" style="stop-color:#5FB233"/>
		<stop  offset="1" style="stop-color:#90C643"/>
	</linearGradient>
	<path id="XMLID_181_" style="fill:url(#XMLID_00000003081935104481212870000013414467788796629437_);" d="M311.55,191.19
		c1.54,3.51,3.93,3.65,9.82,3.65l7.01-0.28l-0.14-2.38l-7.01,0.28c-6.17,0-6.87-0.28-7.72-2.24L311.55,191.19z"/>
	
		<linearGradient id="XMLID_00000024000753716372419720000013893661245048697768_" gradientUnits="userSpaceOnUse" x1="-388.1611" y1="612.8408" x2="-386.7583" y2="612.8408" gradientTransform="matrix(5.5888 7.3977 -7.3977 5.5888 6916.4712 -333.9914)">
		<stop  offset="0" style="stop-color:#56A32E"/>
		<stop  offset="0.4945" style="stop-color:#90C643"/>
		<stop  offset="1" style="stop-color:#90C643"/>
	</linearGradient>
	<path id="XMLID_182_" style="fill:url(#XMLID_00000024000753716372419720000013893661245048697768_);" d="M228.37,207.04
		c-4.21,0.14-17.25,10.24-27.21,20.9c-0.42,0.42-0.84,0.98-1.26,1.4c-1.12,1.12-2.1,2.38-3.23,3.79c0.98,0.14,1.82,0.28,2.81,0.42
		c0.7-0.84,1.4-1.68,2.24-2.52c0.84-0.98,1.68-1.82,2.52-2.67c10.1-10.52,21.46-18.8,24.27-18.8c1.4,0,2.38,0.42,2.38,0.98v0.28
		c0,2.81-3.79,5.19-7.01,7.43l-2.52,1.68l-0.14,0.14c-4.07,2.95-6.17,4.35-6.17,7.15c0,0.42,0,0.7,0.14,1.12
		c0.14,0.98,0.84,1.68,1.4,2.24c0.56,0.56,0.98,0.98,1.26,1.82h2.38c-0.28-1.82-1.26-2.81-1.96-3.51c-0.42-0.42-0.7-0.7-0.7-0.98
		c-0.28-1.96,0.28-2.52,5.05-5.89l0.14-0.14l2.38-1.68c3.93-2.67,8.42-5.47,8-9.82c-0.14-1.4-1.4-3.23-4.63-3.23L228.37,207.04"/>
	
		<linearGradient id="XMLID_00000004515150555523563230000015379214469395711382_" gradientUnits="userSpaceOnUse" x1="-388.1539" y1="612.968" x2="-386.7511" y2="612.968" gradientTransform="matrix(5.5877 7.3963 -7.3963 5.5877 6912.4834 -331.901)">
		<stop  offset="0" style="stop-color:#5FB233"/>
		<stop  offset="1" style="stop-color:#90C643"/>
	</linearGradient>
	<path id="XMLID_183_" style="fill:url(#XMLID_00000004515150555523563230000015379214469395711382_);" d="M217.85,232.15
		c0,0.14,0.14,0.42,0.14,0.56v0.14c0,0.56-0.28,1.4-0.98,2.67c0.84,0.14,1.68,0.14,2.52,0.28c0.56-1.26,0.84-2.38,0.84-3.23v-0.28
		h-2.52V232.15z"/>
	
		<linearGradient id="XMLID_00000085226577907815386850000005335214808239559859_" gradientUnits="userSpaceOnUse" x1="-486.7333" y1="686.2554" x2="-485.3305" y2="686.2554" gradientTransform="matrix(-3.7519 -4.4714 4.4714 -3.7519 -4645.0806 545.7603)">
		<stop  offset="0" style="stop-color:#5FB233"/>
		<stop  offset="0.8132" style="stop-color:#9BCB52"/>
		<stop  offset="1" style="stop-color:#9BCB52"/>
	</linearGradient>
	<path id="XMLID_184_" style="fill:url(#XMLID_00000085226577907815386850000005335214808239559859_);" d="M233.84,149.53
		c-0.84,2.1-1.4,4.63-1.4,7.29c0,10.38,5.05,29.32,39.28,40.68l0.42,0.14l0,0l2.67-0.28c0-1.4-1.26-1.82-1.96-1.96l-0.42-0.14
		c-32.68-10.94-37.59-28.76-37.59-38.44c0-2.67,0.42-4.77,1.26-6.59c3.23-7.57,12.06-8.56,16.41-8.56
		c36.05,0,54.15,37.45,58.92,48.96l0.14,0.42l2.24-0.98l-0.14-0.42c-4.91-11.78-23.57-50.36-61.02-50.36
		C243.09,139.43,236.5,143.08,233.84,149.53"/>
	
		<linearGradient id="XMLID_00000170258616600448715160000015895576213668560824_" gradientUnits="userSpaceOnUse" x1="-513.9296" y1="755.6984" x2="-512.5269" y2="755.6984" gradientTransform="matrix(-1.1619 -2.7008 2.7008 -1.1619 -2451.5691 -354.4214)">
		<stop  offset="0" style="stop-color:#5AAB30"/>
		<stop  offset="1" style="stop-color:#90C643"/>
	</linearGradient>
	<path id="XMLID_185_" style="fill:url(#XMLID_00000170258616600448715160000015895576213668560824_);" d="M219.11,135.93
		c0.84,0.14,1.54,0.28,2.1,0.42c-4.63,8.28-12.76,22.72-13.19,23.43l-0.14,0.14h-0.28l-0.56-0.14c-6.87-0.98-12.48-1.54-16.97-1.54
		c-10.8,0-26.23,4.21-42.5,13.19l1.12,2.1c15.85-8.84,30.86-12.91,41.38-12.91c4.35,0,9.96,0.56,16.69,1.54l0.56,0.14
		c0.7,0.14,1.12,0,1.54-0.14c0.42-0.14,0.84-0.56,1.12-1.12c0.56-0.84,13.05-23.29,13.61-24.13c0.28-0.42,0.28-0.98,0.14-1.4
		c-0.14-0.42-0.56-0.84-0.98-0.98c-0.98-0.28-2.24-0.56-3.65-0.7V135.93z"/>
	<path id="XMLID_186_" class="st49" d="M110.54,176.46c44.33-32.12,86.55-40.82,104.64-40.82c1.68,0,2.95,0,4.07,0.28v-2.38
		c-1.26-0.14-2.67-0.28-4.07-0.28c-18.38,0-61.3,8.7-106.05,41.24c-12.48,9.12-22.72,17.96-31.14,26.37
		c0.84,0.28,1.54,0.56,2.38,0.98C88.51,193.72,98.47,185.16,110.54,176.46"/>
</g>
</svg>
