<?xml version="1.0" encoding="UTF-8" standalone="no"?>
<!-- Generator: Adobe Illustrator 16.0.0, SVG Export Plug-In . SVG Version: 6.00 Build 0)  -->

<svg
   version="1.1"
   id="Layer_1"
   x="0px"
   y="0px"
   width="1000"
   height="308.00134"
   viewBox="0 0 1000 308.00134"
   enable-background="new 0 0 824 256"
   xml:space="preserve"
   sodipodi:docname="Haier.svg"
   inkscape:version="1.3.2 (091e20e, 2023-11-25, custom)"
   xmlns:inkscape="http://www.inkscape.org/namespaces/inkscape"
   xmlns:sodipodi="http://sodipodi.sourceforge.net/DTD/sodipodi-0.dtd"
   xmlns="http://www.w3.org/2000/svg"
   xmlns:svg="http://www.w3.org/2000/svg"><defs
   id="defs5" /><sodipodi:namedview
   id="namedview5"
   pagecolor="#ffffff"
   bordercolor="#000000"
   borderopacity="0.25"
   inkscape:showpageshadow="2"
   inkscape:pageopacity="0.0"
   inkscape:pagecheckerboard="0"
   inkscape:deskcolor="#d1d1d1"
   inkscape:zoom="0.71599999"
   inkscape:cx="500.00001"
   inkscape:cy="154.32961"
   inkscape:window-width="1366"
   inkscape:window-height="705"
   inkscape:window-x="-8"
   inkscape:window-y="-8"
   inkscape:window-maximized="1"
   inkscape:current-layer="Layer_1" />
<g
   id="g5"
   transform="matrix(1.2613856,0,0,1.2613856,-30.640318,-8.5244439)">
	<g
   id="g4">
		<path
   fill="#005baa"
   d="m 712.652,171.532 c 0.348,-3.178 0.552,-6.388 0.552,-9.638 0,-49.205 -40.776,-89.07 -91.083,-89.07 -50.293,0 -91.063,39.865 -91.063,89.07 0,49.189 40.771,89.039 91.063,89.039 38.259,0 70.963,-23.021 84.481,-55.729 l -39.257,-6.878 c -8.696,15.914 -25.151,26.634 -43.96,26.634 -24.967,0 -45.642,-18.778 -49.801,-43.429 H 712.652 Z M 623.386,109.79 c 21.319,0 39.528,13.729 46.96,33.163 h -93.977 c 7.412,-19.433 25.661,-33.163 47.017,-33.163 z"
   id="path1" />
		<rect
   x="460.06601"
   y="76.555"
   fill="#005baa"
   width="46.512001"
   height="171.17999"
   id="rect1" />
		<path
   fill="#005baa"
   d="m 483.339,6.758 c -14.358,0 -25.95,11.655 -25.95,25.953 0,14.276 11.592,25.9 25.95,25.9 14.3,0 25.917,-11.624 25.917,-25.9 0,-14.298 -11.617,-25.953 -25.917,-25.953"
   id="path2" />
		<polygon
   fill="#005baa"
   points="75.133,21.671 24.291,21.671 24.291,247.582 75.133,247.582 75.133,155.427 175.389,155.427 175.389,247.582 226.273,247.582 226.273,21.671 175.389,21.671 175.389,113.822 75.133,113.822 "
   id="polygon2" />
		<path
   fill="#005baa"
   d="m 385.318,76.634 v 9.185 c -13.519,-8.191 -29.361,-12.896 -46.336,-12.896 -49.308,0 -89.3,39.84 -89.3,89.006 0,49.156 39.992,89.006 89.3,89.006 16.534,0 31.981,-4.491 45.262,-12.27 v 8.918 h 45.384 V 76.634 Z M 341.25,213.408 c -28.777,0 -52.04,-23.027 -52.04,-51.459 0,-28.456 23.262,-51.5 52.04,-51.5 28.77,0 52.071,23.044 52.071,51.5 -0.001,28.432 -23.302,51.459 -52.071,51.459 z"
   id="path3" />
		<path
   fill="#005baa"
   d="m 809.376,60.657 c -42.832,7.472 -75.396,44.736 -75.896,89.679 v 97.398 h 44.535 l 0.023,-99.229 c 0,-22.716 17.053,-41.463 39.032,-44.153 z"
   id="path4" />
	</g>
</g>
</svg>
