<?xml version="1.0" encoding="UTF-8" standalone="no"?>
<svg
   xmlns:dc="http://purl.org/dc/elements/1.1/"
   xmlns:cc="http://creativecommons.org/ns#"
   xmlns:rdf="http://www.w3.org/1999/02/22-rdf-syntax-ns#"
   xmlns:svg="http://www.w3.org/2000/svg"
   xmlns="http://www.w3.org/2000/svg"
   xmlns:sodipodi="http://sodipodi.sourceforge.net/DTD/sodipodi-0.dtd"
   xmlns:inkscape="http://www.inkscape.org/namespaces/inkscape"
   viewBox="0 0 1000 254.03199"
   height="254.032"
   width="1000"
   xml:space="preserve"
   id="svg2"
   version="1.1"
   inkscape:version="0.91 r13725"
   sodipodi:docname="Kodak 2006.svg"><sodipodi:namedview
     pagecolor="#ffffff"
     bordercolor="#666666"
     borderopacity="1"
     objecttolerance="10"
     gridtolerance="10"
     guidetolerance="10"
     inkscape:pageopacity="0"
     inkscape:pageshadow="2"
     inkscape:window-width="1366"
     inkscape:window-height="705"
     id="namedview14"
     showgrid="false"
     fit-margin-top="0"
     fit-margin-left="0"
     fit-margin-right="0"
     fit-margin-bottom="0"
     inkscape:zoom="0.46294008"
     inkscape:cx="639.30813"
     inkscape:cy="11.492115"
     inkscape:window-x="-8"
     inkscape:window-y="-8"
     inkscape:window-maximized="1"
     inkscape:current-layer="svg2" /><metadata
     id="metadata8"><rdf:RDF><cc:Work
         rdf:about=""><dc:format>image/svg+xml</dc:format><dc:type
           rdf:resource="http://purl.org/dc/dcmitype/StillImage" /><dc:title></dc:title></cc:Work></rdf:RDF></metadata><defs
     id="defs6" /><g
     transform="matrix(6.9207649,0,0,-6.9207649,-124.41667,419.01681)"
     id="g10"><g
       transform="scale(0.1,0.1)"
       id="g12"><path
         id="path14"
         style="fill:#e81d2a;fill-opacity:1;fill-rule:evenodd;stroke:none"
         d="m 179.773,594.574 83.457,0 0,-142.023 113.059,142.023 102.711,0 -130.762,-163.32 137.176,-185.727 -109.125,0 -113.059,155.489 0,-155.489 -83.457,0 0,349.047"
         inkscape:connector-curvature="0" /><path
         id="path16"
         style="fill:#e81d2a;fill-opacity:1;fill-rule:evenodd;stroke:none"
         d="m 1358.37,605.449 83.46,0 0,-206.699 82.19,103.547 91.94,0 -98.58,-122.426 107.32,-134.344 -101.45,0 -81.42,103.411 0,-103.411 -83.46,0 0,359.922"
         inkscape:connector-curvature="0" /><path
         id="path18"
         style="fill:#e81d2a;fill-opacity:1;fill-rule:evenodd;stroke:none"
         d="m 604.078,510.645 c 91.692,0 140.801,-60.961 140.801,-136.125 0,-75.172 -48.375,-136.129 -140.801,-136.129 -92.418,0 -140.793,60.957 -140.793,136.129 0,75.164 49.106,136.125 140.793,136.125 z m 0,-64.579 c 41.649,0 63.945,-32.043 63.945,-71.546 0,-39.508 -21.972,-71.551 -63.945,-71.551 -41.969,0 -63.941,32.043 -63.941,71.551 0,39.503 22.297,71.546 63.941,71.546"
         inkscape:connector-curvature="0" /><path
         id="path20"
         style="fill:#e81d2a;fill-opacity:1;fill-rule:evenodd;stroke:none"
         d="m 908.109,510.645 c 22.637,0 43.465,-5.981 59.297,-16.079 l 0,110.883 79.964,0 0,-230.929 c 0,-75.172 -47.35,-136.129 -139.261,-136.129 -91.906,0 -140.015,60.957 -140.015,136.129 0,75.164 48.836,136.125 140.015,136.125 z m 0,-64.579 c 41.418,0 63.59,-32.043 63.59,-71.546 0,-39.508 -21.847,-71.551 -63.59,-71.551 -41.738,0 -63.589,32.043 -63.589,71.551 0,39.503 22.175,71.546 63.589,71.546"
         inkscape:connector-curvature="0" /><path
         id="path22"
         style="fill:#e81d2a;fill-opacity:1;fill-rule:evenodd;stroke:none"
         d="m 1072.05,331.102 c 0,65.117 45.68,82.019 119.95,82.019 l 60.03,0 c 0,30.039 -20.7,39.781 -59.36,39.781 -33.98,0 -64.4,-6.531 -77.71,-14.722 l 0,60.554 c 22.72,9.579 62.93,13.024 91.93,13.024 75.49,0 116.67,-30.926 116.67,-103.086 l 0.01,-75.348 c 0,-53.219 -48.93,-94.933 -123.94,-94.933 -81.38,0 -127.58,34.871 -127.58,92.711 z m 71.53,3.312 c 0,21.524 18.5,27.82 50.53,27.82 l 57.92,0 0,-27.066 c 0,-18.047 -21.1,-32.199 -53.44,-32.199 -35.08,0 -55.01,11.265 -55.01,31.445"
         inkscape:connector-curvature="0" /></g></g></svg>