<?xml version="1.0" encoding="UTF-8" standalone="no"?>
<!-- Generator: Adobe Illustrator 16.0.0, SVG Export Plug-In . SVG Version: 6.00 Build 0)  -->

<svg
   xmlns:dc="http://purl.org/dc/elements/1.1/"
   xmlns:cc="http://creativecommons.org/ns#"
   xmlns:rdf="http://www.w3.org/1999/02/22-rdf-syntax-ns#"
   xmlns:svg="http://www.w3.org/2000/svg"
   xmlns="http://www.w3.org/2000/svg"
   xmlns:xlink="http://www.w3.org/1999/xlink"
   xmlns:sodipodi="http://sodipodi.sourceforge.net/DTD/sodipodi-0.dtd"
   xmlns:inkscape="http://www.inkscape.org/namespaces/inkscape"
   version="1.1"
   id="Layer_1"
   x="0px"
   y="0px"
   width="1000"
   height="435.45938"
   viewBox="0 0 999.99999 435.45939"
   enable-background="new 0 0 244.421 148.943"
   xml:space="preserve"
   sodipodi:docname="LG 2008.svg"
   inkscape:version="0.92.2 (5c3e80d, 2017-08-06)"><metadata
     id="metadata213"><rdf:RDF><cc:Work
         rdf:about=""><dc:format>image/svg+xml</dc:format><dc:type
           rdf:resource="http://purl.org/dc/dcmitype/StillImage" /><dc:title></dc:title></cc:Work></rdf:RDF></metadata><defs
     id="defs211" /><sodipodi:namedview
     pagecolor="#ffffff"
     bordercolor="#666666"
     borderopacity="1"
     objecttolerance="10"
     gridtolerance="10"
     guidetolerance="10"
     inkscape:pageopacity="0"
     inkscape:pageshadow="2"
     inkscape:window-width="1366"
     inkscape:window-height="705"
     id="namedview209"
     showgrid="false"
     fit-margin-top="0"
     fit-margin-left="0"
     fit-margin-right="0"
     fit-margin-bottom="0"
     inkscape:zoom="1.1619296"
     inkscape:cx="733.78107"
     inkscape:cy="216.82427"
     inkscape:window-x="-8"
     inkscape:window-y="-8"
     inkscape:window-maximized="1"
     inkscape:current-layer="Layer_1" /><g
     id="g206"
     transform="matrix(4.7629708,0,0,4.7629708,-36.47483,-93.925784)"><g
       id="g25"><defs
         id="defs3"><path
           id="SVGID_1_"
           d="m 7.658,65.423 c 0,25.258 20.465,45.723 45.686,45.723 25.159,0 45.546,-20.271 45.738,-45.357 V 65.072 C 98.89,39.989 78.502,19.72 53.343,19.72 28.123,19.72 7.658,40.177 7.658,65.423"
           inkscape:connector-curvature="0" /></defs><clipPath
         id="SVGID_2_"><use
           xlink:href="#SVGID_1_"
           overflow="visible"
           id="use5"
           style="overflow:visible"
           x="0"
           y="0"
           width="100%"
           height="100%" /></clipPath><radialGradient
         id="SVGID_3_"
         cx="-281.52539"
         cy="396.70901"
         r="6.1683002"
         gradientTransform="matrix(7.7354,0,0,7.7354,2229.4492,-3004.4824)"
         gradientUnits="userSpaceOnUse"><stop
           offset="0"
           style="stop-color:#C40452"
           id="stop8" /><stop
           offset="0.5"
           style="stop-color:#C40452"
           id="stop10" /><stop
           offset="0.7363"
           style="stop-color:#C20552"
           id="stop12" /><stop
           offset="0.8358"
           style="stop-color:#B90550"
           id="stop14" /><stop
           offset="0.9094"
           style="stop-color:#AD044B"
           id="stop16" /><stop
           offset="0.9701"
           style="stop-color:#9C0145"
           id="stop18" /><stop
           offset="1"
           style="stop-color:#910041"
           id="stop20" /></radialGradient><rect
         x="7.658"
         y="19.719999"
         clip-path="url(#SVGID_2_)"
         width="91.422997"
         height="91.426003"
         id="rect23"
         style="fill:url(#SVGID_3_)" /></g><g
       id="g40"><defs
         id="defs28"><path
           id="SVGID_4_"
           d="M 22.413,34.491 C 7.125,49.773 5.584,73.049 18.995,86.469 32.408,99.876 55.675,98.338 70.964,83.055 86.26,67.743 87.817,44.469 74.399,31.047 68.279,24.925 60.104,21.918 51.549,21.918 41.395,21.917 30.725,26.183 22.413,34.491"
           inkscape:connector-curvature="0" /></defs><clipPath
         id="SVGID_5_"><use
           xlink:href="#SVGID_4_"
           overflow="visible"
           id="use30"
           style="overflow:visible"
           x="0"
           y="0"
           width="100%"
           height="100%" /></clipPath><linearGradient
         id="SVGID_6_"
         gradientUnits="userSpaceOnUse"
         x1="-270.56351"
         y1="398.93161"
         x2="-264.3945"
         y2="398.93161"
         gradientTransform="matrix(7.8671,7.8671,-7.8671,7.8671,5288.2349,-974.4417)"><stop
           offset="0"
           style="stop-color:#E1959E"
           id="stop33" /><stop
           offset="1"
           style="stop-color:#C40452"
           id="stop35" /></linearGradient><polygon
         clip-path="url(#SVGID_5_)"
         points="126.793,60.898 46.699,-19.195 -33.395,60.898 46.699,140.991 "
         id="polygon38"
         style="fill:url(#SVGID_6_)" /></g><polygon
       points="162.058,92.938 121.919,92.938 121.919,38.244 138.08,38.244 138.08,79.251 162.058,79.251 "
       id="polygon42"
       style="fill:#6d6e71" /><path
       d="m 203.861,87.482 c -2.851,4.369 -8.123,6.81 -14.722,6.81 -14.21,0 -23.456,-11.308 -23.456,-28.779 0,-17.72 10.416,-28.639 27.626,-28.639 6.88,0 12.754,1.834 17.281,5.314 4.579,3.619 6.3,7.173 7.021,14.393 H 200.72 c -0.465,-4.208 -3.615,-6.929 -7.771,-6.929 -6.521,0 -10.335,6.052 -10.335,16.083 0,10.177 3.975,16.286 10.624,16.286 5.252,0 8.294,-2.924 9.538,-9.444 H 192.357 V 61.085 h 25.253 v 31.858 h -13.75 v -5.461 z"
       id="path44"
       inkscape:connector-curvature="0"
       style="fill:#6d6e71" /><g
       id="g79"><defs
         id="defs67"><path
           id="SVGID_7_"
           d="m 33.081,51.697 c 0,3.497 2.868,6.357 6.367,6.357 3.517,0 6.371,-2.86 6.371,-6.357 0,-3.503 -2.854,-6.359 -6.371,-6.359 -3.5,0 -6.367,2.856 -6.367,6.359 m 18.442,-6.334 -0.487,40.566 c 0,0 0.916,1.091 1.079,1.275 0.132,0.178 0.316,0.297 0.577,0.297 h 12.953 c 0.243,0 0.406,-0.119 0.406,-0.377 V 83.41 c 0,-0.317 -0.085,-0.537 -0.273,-0.737 -0.174,-0.221 -1.022,-1.296 -1.022,-1.296 l -7.887,0.867 v -35.71 c 0,-0.243 -0.098,-0.453 -0.259,-0.607 -0.146,-0.151 -0.948,-1.042 -0.948,-1.042 z m 2.658,-18.429 c -21.77,0 -39.476,17.712 -39.476,39.502 0,10.545 4.116,20.463 11.563,27.942 7.45,7.459 17.371,11.566 27.913,11.566 10.574,0 20.491,-4.107 27.929,-11.566 7.479,-7.479 11.569,-17.396 11.569,-27.942 v -0.964 c 0,-0.429 -0.108,-0.729 -0.421,-1.053 -0.199,-0.195 -1.174,-1.228 -1.174,-1.228 l -0.751,0.674 H 64.439 l -0.631,3.861 c 0,0 0.784,0.807 0.98,1.019 0.194,0.201 0.479,0.349 0.792,0.349 h 22.736 c -1.393,17.753 -16.292,31.601 -34.132,31.601 -9.129,0 -17.72,-3.568 -24.205,-10.049 C 23.52,84.197 19.977,75.591 19.977,66.437 c 0,-9.141 3.543,-17.742 10.002,-24.22 6.484,-6.454 15.086,-10.016 24.205,-10.016 0,0 2.188,0.034 2.395,0.027 0.222,-0.008 0.289,-0.112 0.289,-0.297 v -3.792 c 0,-0.176 -0.067,-0.329 -0.211,-0.458 -0.148,-0.135 -0.996,-0.994 -0.996,-0.994 z"
           inkscape:connector-curvature="0" /></defs><clipPath
         id="SVGID_8_"><use
           xlink:href="#SVGID_7_"
           overflow="visible"
           id="use69"
           style="overflow:visible"
           x="0"
           y="0"
           width="100%"
           height="100%" /></clipPath><linearGradient
         id="SVGID_9_"
         gradientUnits="userSpaceOnUse"
         x1="-269.5361"
         y1="396.93851"
         x2="-263.36661"
         y2="396.93851"
         gradientTransform="matrix(9.0503,9.0503,-9.0503,9.0503,6058.2344,-1114.4624)"><stop
           offset="0"
           style="stop-color:#CC4164"
           id="stop72" /><stop
           offset="1"
           style="stop-color:#86003C"
           id="stop74" /></linearGradient><polygon
         clip-path="url(#SVGID_8_)"
         points="133.314,66.316 54.192,-12.8 -24.919,66.316 54.192,145.432 "
         id="polygon77"
         style="fill:url(#SVGID_9_)" /></g><polygon
       points="64.747,85.924 63.85,85.035 51.934,85.035 51.047,85.924 "
       id="polygon81"
       style="fill:#576a76" /><polygon
       points="63.85,82.281 64.755,81.385 55.655,81.385 54.766,82.281 "
       id="polygon83"
       style="fill:#879aa4" /><polygon
       points="54.766,45.786 55.655,44.891 51.036,44.891 51.927,45.786 "
       id="polygon85"
       style="fill:#879aa4" /><polygon
       points="55.661,81.385 55.661,44.899 54.766,45.786 54.766,82.281 "
       id="polygon87"
       style="fill:#152128" /><polygon
       points="64.74,85.924 64.74,81.375 63.85,82.276 63.85,85.035 "
       id="polygon89"
       style="fill:#152128" /><polygon
       points="51.927,45.781 51.036,44.891 51.036,85.924 51.927,85.04 "
       id="polygon91"
       style="fill:#abbac3" /><g
       id="g106"><defs
         id="defs94"><path
           id="SVGID_10_"
           d="m 33.677,50.845 c 0,-2.806 2.278,-5.077 5.084,-5.077 2.797,0 5.073,2.271 5.073,5.077 0,2.791 -2.276,5.043 -5.073,5.043 -2.805,0.001 -5.084,-2.252 -5.084,-5.043 m -0.886,0 c 0,3.277 2.663,5.936 5.971,5.936 3.295,0 5.965,-2.659 5.965,-5.936 0,-3.299 -2.67,-5.971 -5.965,-5.971 -3.308,10e-4 -5.971,2.672 -5.971,5.971"
           inkscape:connector-curvature="0" /></defs><clipPath
         id="SVGID_11_"><use
           xlink:href="#SVGID_10_"
           overflow="visible"
           id="use96"
           style="overflow:visible"
           x="0"
           y="0"
           width="100%"
           height="100%" /></clipPath><linearGradient
         id="SVGID_12_"
         gradientUnits="userSpaceOnUse"
         x1="-289.0083"
         y1="464.73929"
         x2="-282.83899"
         y2="464.73929"
         gradientTransform="matrix(1.3649,1.3649,-1.3649,1.3649,1063.3019,-193.2721)"><stop
           offset="0"
           style="stop-color:#ABBAC3"
           id="stop99" /><stop
           offset="1"
           style="stop-color:#152128"
           id="stop101" /></linearGradient><polygon
         clip-path="url(#SVGID_11_)"
         points="50.678,50.825 38.754,38.906 26.833,50.825 38.754,62.75 "
         id="polygon104"
         style="fill:url(#SVGID_12_)" /></g><polygon
       points="87.438,67.728 88.383,66.834 64.7,66.834 63.808,67.728 "
       id="polygon108"
       style="fill:#445662" /><polygon
       points="54.766,27.581 54.766,30.345 55.638,31.258 55.661,30.759 55.661,26.686 "
       id="polygon110"
       style="fill:#152128" /><polygon
       points="90.085,63.198 63.803,63.198 64.693,64.094 91.18,64.088 92.075,63.188 "
       id="polygon112"
       style="fill:#879aa4" /><g
       id="g127"><defs
         id="defs115"><path
           id="SVGID_13_"
           d="m 14.609,65.423 c 0,10.339 4.033,20.077 11.339,27.4 7.303,7.322 17.041,11.35 27.37,11.35 10.375,0 20.124,-4.027 27.422,-11.35 7.319,-7.323 11.343,-17.062 11.343,-27.4 V 63.19 l -0.892,0.907 v 1.326 c 0,10.098 -3.941,19.612 -11.071,26.764 -7.144,7.15 -16.667,11.091 -26.802,11.091 -10.098,0 -19.599,-3.94 -26.746,-11.091 -7.138,-7.163 -11.078,-16.666 -11.078,-26.764 0,-20.889 16.973,-37.868 37.824,-37.868 l 1.44,0.018 0.903,-0.888 -2.343,-0.024 c -21.339,0 -38.709,17.378 -38.709,38.762"
           inkscape:connector-curvature="0" /></defs><clipPath
         id="SVGID_14_"><use
           xlink:href="#SVGID_13_"
           overflow="visible"
           id="use117"
           style="overflow:visible"
           x="0"
           y="0"
           width="100%"
           height="100%" /></clipPath><linearGradient
         id="SVGID_15_"
         gradientUnits="userSpaceOnUse"
         x1="-269.62939"
         y1="397.08301"
         x2="-263.4599"
         y2="397.08301"
         gradientTransform="matrix(8.9541,8.9541,-8.9541,8.9541,5995.5767,-1103.3967)"><stop
           offset="0"
           style="stop-color:#ABBAC3"
           id="stop120" /><stop
           offset="1"
           style="stop-color:#152128"
           id="stop122" /></linearGradient><polygon
         clip-path="url(#SVGID_14_)"
         points="130.84,65.419 53.343,-12.077 -24.147,65.419 53.343,142.912 "
         id="polygon125"
         style="fill:url(#SVGID_15_)" /></g><g
       id="g142"><defs
         id="defs130"><path
           id="SVGID_16_"
           d="M 52.824,30.34 C 43.667,30.475 35.058,34.102 28.521,40.6 21.908,47.224 18.26,56.04 18.26,65.423 c 0,9.38 3.647,18.188 10.261,24.808 6.544,6.533 15.176,10.173 24.363,10.291 h 0.904 c 18.189,-0.229 33.33,-14.523 34.564,-32.723 l 0.031,-0.967 -0.952,0.894 h 0.031 C 86.26,85.624 71.265,99.633 53.343,99.633 c -9.128,0 -17.711,-3.57 -24.19,-10.022 -6.445,-6.46 -9.99,-15.048 -9.99,-24.188 0,-9.141 3.545,-17.741 9.99,-24.187 C 35.641,34.802 44.22,31.23 53.343,31.23 l 2.312,0.023 -0.897,-0.907 -1,-0.005 h -0.934 z"
           inkscape:connector-curvature="0" /></defs><clipPath
         id="SVGID_17_"><use
           xlink:href="#SVGID_16_"
           overflow="visible"
           id="use132"
           style="overflow:visible"
           x="0"
           y="0"
           width="100%"
           height="100%" /></clipPath><linearGradient
         id="SVGID_18_"
         gradientUnits="userSpaceOnUse"
         x1="-256.65671"
         y1="376.90039"
         x2="-250.48489"
         y2="376.90039"
         gradientTransform="matrix(-11.3611,0,0,-11.3611,-2827.5281,4347.4326)"><stop
           offset="0"
           style="stop-color:#ABBAC3"
           id="stop135" /><stop
           offset="1"
           style="stop-color:#152128"
           id="stop137" /></linearGradient><rect
         x="18.264"
         y="30.34"
         clip-path="url(#SVGID_17_)"
         width="70.119003"
         height="70.181999"
         id="rect140"
         style="fill:url(#SVGID_18_)" /></g><polygon
       points="64.7,64.09 63.808,63.208 63.808,67.728 64.7,66.834 "
       id="polygon144"
       style="fill:#c2ced5" /><g
       id="g169"><defs
         id="defs147"><path
           id="SVGID_19_"
           d="M 51.518,45.374 V 85.439 H 64.261 V 81.872 H 55.177 V 45.374 Z M 52.854,27.15 C 32.017,27.402 15.09,44.468 15.09,65.423 c 0,10.229 3.982,19.823 11.2,27.055 7.219,7.237 16.841,11.213 27.028,11.213 10.243,0 19.87,-3.976 27.084,-11.213 C 87.63,85.247 91.589,75.652 91.589,65.423 V 63.684 H 90.086 64.284 v 3.561 h 23.675 c -0.003,0.081 -0.003,0.443 -0.01,0.515 -1.228,18.029 -16.261,32.354 -34.606,32.354 -9.253,0 -17.954,-3.607 -24.533,-10.161 C 22.278,83.41 18.678,74.69 18.678,65.423 c 0,-9.282 3.601,-17.993 10.132,-24.528 6.579,-6.533 15.28,-10.149 24.533,-10.149 0.394,0 1.392,0 1.833,0.014 v -3.591 c -0.371,0 -0.967,-0.013 -1.439,-0.018 h -0.883 z"
           inkscape:connector-curvature="0" /></defs><clipPath
         id="SVGID_20_"><use
           xlink:href="#SVGID_19_"
           overflow="visible"
           id="use149"
           style="overflow:visible"
           x="0"
           y="0"
           width="100%"
           height="100%" /></clipPath><radialGradient
         id="SVGID_21_"
         cx="-278.3735"
         cy="390.95209"
         r="6.1711998"
         gradientTransform="matrix(10.949,0,0,10.949,3078.6226,-4245.7891)"
         gradientUnits="userSpaceOnUse"><stop
           offset="0"
           style="stop-color:#FFFFFF"
           id="stop152" /><stop
           offset="0.35"
           style="stop-color:#FFFFFF"
           id="stop154" /><stop
           offset="0.5717"
           style="stop-color:#F9FAFB"
           id="stop156" /><stop
           offset="0.705"
           style="stop-color:#EDF1F3"
           id="stop158" /><stop
           offset="0.815"
           style="stop-color:#DCE3E8"
           id="stop160" /><stop
           offset="0.9116"
           style="stop-color:#C6D1D8"
           id="stop162" /><stop
           offset="1"
           style="stop-color:#ABBAC3"
           id="stop164" /></radialGradient><rect
         x="15.09"
         y="27.152"
         clip-path="url(#SVGID_20_)"
         width="76.499001"
         height="76.533997"
         id="rect167"
         style="fill:url(#SVGID_21_)" /></g><g
       id="g190"><defs
         id="defs172"><path
           id="SVGID_22_"
           d="m 33.263,50.845 c 0,3.019 2.473,5.455 5.499,5.455 3.013,0 5.478,-2.436 5.478,-5.455 0,-3.047 -2.465,-5.482 -5.478,-5.482 -3.026,0 -5.499,2.435 -5.499,5.482"
           inkscape:connector-curvature="0" /></defs><clipPath
         id="SVGID_23_"><use
           xlink:href="#SVGID_22_"
           overflow="visible"
           id="use174"
           style="overflow:visible"
           x="0"
           y="0"
           width="100%"
           height="100%" /></clipPath><radialGradient
         id="SVGID_24_"
         cx="-365.06741"
         cy="440.91211"
         r="6.1711001"
         gradientTransform="matrix(1.3952,0,0,1.3952,545.816,-566.3977)"
         gradientUnits="userSpaceOnUse"><stop
           offset="0"
           style="stop-color:#FFFFFF"
           id="stop177" /><stop
           offset="0.35"
           style="stop-color:#FFFFFF"
           id="stop179" /><stop
           offset="0.5653"
           style="stop-color:#F6F8F9"
           id="stop181" /><stop
           offset="0.7879"
           style="stop-color:#E6EBEF"
           id="stop183" /><stop
           offset="1"
           style="stop-color:#D0DADF"
           id="stop185" /></radialGradient><rect
         x="33.263"
         y="45.362999"
         clip-path="url(#SVGID_23_)"
         width="10.976"
         height="10.937"
         id="rect188"
         style="fill:url(#SVGID_24_)" /></g><g
       id="g204"><path
         d="m 39.744,46.341 c 1.265,0 2.412,0.452 3.338,1.165 -1,-1.3 -2.567,-2.148 -4.328,-2.148 -3.018,0 -5.485,2.44 -5.485,5.488 0,1.748 0.848,3.283 2.131,4.284 -0.709,-0.922 -1.144,-2.043 -1.144,-3.302 0,-3.037 2.465,-5.487 5.488,-5.487"
         id="path192"
         inkscape:connector-curvature="0"
         style="fill:#ffffff" /><path
         d="m 55.176,27.172 c -0.483,-0.011 -1.4,-0.029 -1.851,-0.029 -21.059,0 -38.222,17.177 -38.222,38.275 0,10.243 3.977,19.824 11.187,27.066 0.239,0.226 0.479,0.442 0.706,0.673 C 20.182,85.997 16.434,76.683 16.434,66.764 16.435,45.709 31.345,28.225 55.176,27.172"
         id="path194"
         inkscape:connector-curvature="0"
         style="fill:#ffffff" /><path
         d="m 55.176,81.872 c 0,0 2.626,0.766 9.077,0.766 v -0.766 z"
         id="path196"
         inkscape:connector-curvature="0"
         style="fill:#ffffff" /><path
         d="m 55.176,46.507 v -1.129 h -3.659 v 40.063 c 0,0 1.146,-6.096 1.146,-38.935 h 2.513 z"
         id="path198"
         inkscape:connector-curvature="0"
         style="fill:#ffffff" /><path
         d="m 91.594,63.682 -27.31,0.005 v 3.548 h 0.994 v -2.567 c 23.803,0 26.316,-0.986 26.316,-0.986"
         id="path200"
         inkscape:connector-curvature="0"
         style="fill:#ffffff" /><path
         d="m 87.968,67.241 c -0.009,0.071 -0.009,0.454 -0.019,0.53 -1.216,18.027 -16.269,32.34 -34.606,32.34 -9.253,0 -17.961,-3.611 -24.533,-10.169 -4.279,-4.275 -7.29,-9.49 -8.87,-15.169 4.104,14.941 17.768,25.765 33.998,25.765 17.425,0 33.482,-13.651 34.482,-33.297 z"
         id="path202"
         inkscape:connector-curvature="0"
         style="fill:#ffffff" /></g></g></svg>