<?xml version="1.0" encoding="UTF-8" standalone="no"?>
<!-- Created with Inkscape (http://www.inkscape.org/) -->

<svg
   width="241.45897mm"
   height="241.4852mm"
   viewBox="0 0 241.45897 241.4852"
   version="1.1"
   id="svg5"
   xml:space="preserve"
   xmlns="http://www.w3.org/2000/svg"
   xmlns:svg="http://www.w3.org/2000/svg"><defs
     id="defs2"><filter
   id="Adobe_OpacityMaskFilter"
   filterUnits="userSpaceOnUse"
   x="0"
   y="0"
   width="912.70001"
   height="912.59998">
		<feColorMatrix
   type="matrix"
   values="1 0 0 0 0  0 1 0 0 0  0 0 1 0 0  0 0 0 1 0"
   id="feColorMatrix1777" />
	</filter>
	
	

		
		
	</defs><g
     id="layer1"
     transform="translate(-41.732056,-64.283038)"><path
       id="Fill_1"
       class="st2"
       d="m 258.02893,89.524288 c -22.78063,-22.70125 -55.53604,-25.24125 -95.5675,-25.24125 -40.08438,0 -72.86625,2.566458 -95.646874,25.320625 -22.780625,22.754167 -25.0825,55.509587 -25.0825,95.541037 0,40.03146 2.301875,72.81334 25.0825,95.5675 22.780624,22.75417 55.562494,25.05604 95.646874,25.05604 40.08437,0 72.86625,-2.30187 95.64687,-25.05604 22.78063,-22.75416 25.0825,-55.50958 25.0825,-95.5675 0.0265,-40.08437 -2.32833,-72.8927 -25.16187,-95.620412 z"
       style="stroke-width:0.264583;fill:#ff6900;fill-opacity:1" /><path
       id="path2342"
       style="color:#000000;clip-rule:evenodd;fill:#ffffff;fill-rule:evenodd;stroke:none;stroke-width:5.36501;-inkscape-stroke:none"
       d="m 147.69641,136.10642 -56.593444,5.2e-4 c -2.243796,0 -4.190442,1.90168 -4.190442,4.16408 v 89.50875 c 0,2.26241 1.946646,4.16409 4.190442,4.16409 h 19.605524 c 2.2438,0 4.21731,-1.84399 4.21731,-4.16409 v -4.86843 -61.14563 c 0,0 -0.0908,-1.71891 0.62374,-2.43344 0.68197,-0.68197 2.26963,-0.59841 2.26963,-0.59841 h 31.39549 c 6.80034,0.15621 12.88671,1.25384 15.45074,3.81785 l 0.003,0.003 0.003,0.003 c 3.0102,2.99127 3.86509,10.71392 3.89124,18.74356 v 46.24007 0.21188 c 0,2.32009 1.97351,4.16408 4.21731,4.16408 h 20.14141 c 1.25514,0 2.15028,-0.0333 3.0334,-0.88315 0.26436,-0.2544 0.46696,-0.71154 0.56121,-1.18287 0.10572,-0.5287 0.0863,-1.06092 0.0863,-1.06092 v -45.77808 c 0,-14.89967 -0.25823,-30.91924 -9.11676,-39.80842 l -0.002,-0.002 -0.002,-0.002 c -8.86933,-8.86932 -24.91501,-9.0935 -39.78517,-9.0935 z m 65.4327,5.2e-4 c -2.26241,0 -4.19096,1.84399 -4.19096,4.16408 v 89.4824 c 0,2.26241 1.94716,4.16408 4.19096,4.16408 H 234.056 c 1.24484,0 1.88671,-0.2676 2.4567,-0.93275 0.48637,-0.56759 0.4656,-2.19367 0.4656,-2.19367 v -90.52006 c 0,-2.37777 -1.95491,-4.16408 -4.21731,-4.16408 z m -81.65083,35.63968 c -2.2438,0 -4.2168,1.84399 -4.2168,4.16409 v 53.84271 c 0,2.3201 1.973,4.16408 4.2168,4.16408 h 20.58479 c 2.26241,0 4.19044,-1.84398 4.19044,-4.16408 v -53.84271 c 0,-2.3201 -1.92803,-4.16409 -4.19044,-4.16409 z" /></g><style
     type="text/css"
     id="style1775">
	.st0{fill-rule:evenodd;clip-rule:evenodd;fill:#FFFFFF;filter:url(#Adobe_OpacityMaskFilter);}
	.st1{mask:url(#mask0_1_);}
	.st2{fill-rule:evenodd;clip-rule:evenodd;fill:#FF6900;}
	.st3{fill-rule:evenodd;clip-rule:evenodd;fill:#FFFFFF;}
</style></svg>
