<?xml version="1.0" encoding="utf-8"?>
<!-- Generator: Adobe Illustrator 16.0.0, SVG Export Plug-In . SVG Version: 6.00 Build 0)  -->
<!DOCTYPE svg PUBLIC "-//W3C//DTD SVG 1.1//EN" "http://www.w3.org/Graphics/SVG/1.1/DTD/svg11.dtd">
<svg version="1.1" id="Layer_1" xmlns="http://www.w3.org/2000/svg" xmlns:xlink="http://www.w3.org/1999/xlink" x="0px" y="0px"
	 width="300px" height="280px" viewBox="0 0 300 280" style="enable-background:new 0 0 300 280;" xml:space="preserve">
<style type="text/css">
<![CDATA[
	.st0{clip-path:url(#SVGID_2_);fill-rule:evenodd;clip-rule:evenodd;fill:#FFFFFF;}
	.st1{fill-rule:evenodd;clip-rule:evenodd;fill:#F37021;}
]]>
</style>
<rect x="41.7" y="93.7" class="st1" width="216.5" height="92.6"/>
<g>
	<defs>
		<rect id="SVGID_1_" width="300" height="280"/>
	</defs>
	<clipPath id="SVGID_2_">
		<use xlink:href="#SVGID_1_"  style="overflow:visible;"/>
	</clipPath>
	<path class="st0" d="M126.8,134.2v14h-4.3V135c0-1.7-0.8-3.1-3-3.2c-1.8-0.1-3.6,0.9-3.6,3.3v2.1v11h-4.3v-11v-2.1
		c0.1-3.3-3.9-4.2-6.4-2.6v15.7h-4.3v-15.7V130c2.6-2.6,10.4-4,12.9,0c0.9-1.1,2.6-2.4,5.2-2.5C124.3,127.4,126.8,130.8,126.8,134.2
		 M96.1,155l0.1,0.4c0.5,2.4-1.1,4.7-3.4,5.2l-6.1,1.2c-2.4,0.5-4.7-1.1-5.2-3.4l-0.1-0.4c-0.5-2.4,1.1-4.7,3.4-5.2l6.1-1.2
		C93.3,151.1,95.7,152.6,96.1,155 M82.5,125.9l0.4-0.1c2.4-0.5,4.7,1.1,5.2,3.4l3.3,16.3c0.5,2.4-1.1,4.7-3.4,5.2l-0.4,0.1
		c-2.4,0.5-4.7-1.1-5.2-3.4L79.1,131C78.6,128.7,80.1,126.4,82.5,125.9 M70.9,124.3l0.5-0.1c2.4-0.5,4.7,1.1,5.2,3.4l4.3,20.8
		c0.4,2.4-1.1,4.7-3.5,5.2l-0.4,0.1c-2.4,0.5-4.7-1.1-5.2-3.4l-4.3-20.8C67,127.1,68.5,124.8,70.9,124.3 M61.1,129.7l0.4-0.1
		c2.4-0.4,4.7,1.1,5.2,3.4l3.4,16.8c0.4,2.4-1.1,4.7-3.5,5.2l-0.4,0.1c-2.4,0.5-4.7-1.1-5.2-3.4l-3.4-16.8
		C57.1,132.5,58.7,130.2,61.1,129.7 M51,135.2l0.4-0.1c2.4-0.5,4.7,1.1,5.2,3.4l2.4,11.7c0.5,2.4-1.1,4.7-3.4,5.2l-0.4,0.1
		c-2.4,0.5-4.7-1.1-5.2-3.4l-2.4-11.7C47,138,48.6,135.7,51,135.2 M230.7,127.8h5.2l4.4,7.1l4.1-7.1l5.2,0.1l-6.7,10.2l6.7,10.2
		h-5.2l-4.1-6.7l-4.2,6.7l-5.3-0.1l6.8-10L230.7,127.8z M221.9,127.5c5.2,0,8.2,3,8.2,7.6v4.3v1.7v6.1c-8.9,3.2-16.2,1.5-16.1-5.1
		c0.1-3.9,4.6-8.1,11.8-5.4v-1.7c0-4.7-6.9-4.6-8.6-1.9l-2.4-2.6C215.9,128.9,219.1,127.5,221.9,127.5 M225.8,140.5
		c-3.4-1.7-7.6-1.2-7.5,2c0.1,2.4,4,3.1,7.5,2.1V140.5z M211.6,134.2v14h-4.3V135c0-1.7-0.8-3.1-2.9-3.2c-1.8-0.1-3.6,0.9-3.6,3.3
		v2.1h-0.1v11h-4.3v-11v-2.1c0.1-3.3-3.8-4.2-6.4-2.6v15.7h-4.3v-15.7V130c2.6-2.6,10.3-4,12.9,0c0.9-1.1,2.7-2.4,5.3-2.5
		C209.1,127.4,211.6,130.8,211.6,134.2 M175.3,127.5c4.4,0,8.3,3,8.3,7.6v6c0,4.7-3.9,7.7-8.3,7.7c-4.3,0-8.2-3.1-8.2-7.7v-6
		C167.1,130.5,171,127.5,175.3,127.5 M175.3,131.9c1.9,0,3.9,1.1,3.9,3.3v6c0,2.3-2,3.3-4,3.3c-1.9,0-3.8-1.1-3.8-3.3v-6
		C171.4,132.9,173.3,131.9,175.3,131.9 M166.3,127.8v3.9c-3.5-0.5-5.9,0.8-5.9,2.7v13.8h-4.3v-13.4
		C155.9,130.8,159.4,126.7,166.3,127.8 M145.9,127.5c3.7,0,7,2.1,8,5.4l-4.1,1.6c-0.3-1.8-2.1-2.7-3.9-2.7c-2,0-3.9,1.1-3.9,3.3v6
		c0,2.2,1.9,3.3,3.8,3.3c1.8,0,3.7-0.8,4-2.7l4.1,1.6c-1,3.4-4.3,5.5-8,5.5c-4.3,0-8.2-3.1-8.2-7.7v-6
		C137.6,130.5,141.6,127.5,145.9,127.5 M130.4,127.8h4.3v20.4h-4.3V127.8z"/>
</g>
</svg>
