<?xml version="1.0" encoding="UTF-8" standalone="no"?>
<!-- Created with Inkscape (http://www.inkscape.org/) -->

<svg
   width="224.89584mm"
   height="35.765602mm"
   viewBox="0 0 224.89584 35.765602"
   version="1.1"
   id="svg1"
   xml:space="preserve"
   inkscape:version="1.3 (0e150ed6c4, 2023-07-21)"
   sodipodi:docname="Sony 1962.svg"
   xmlns:inkscape="http://www.inkscape.org/namespaces/inkscape"
   xmlns:sodipodi="http://sodipodi.sourceforge.net/DTD/sodipodi-0.dtd"
   xmlns="http://www.w3.org/2000/svg"
   xmlns:svg="http://www.w3.org/2000/svg"><sodipodi:namedview
     id="namedview1"
     pagecolor="#ffffff"
     bordercolor="#000000"
     borderopacity="0.25"
     inkscape:showpageshadow="2"
     inkscape:pageopacity="0.0"
     inkscape:pagecheckerboard="0"
     inkscape:deskcolor="#d1d1d1"
     inkscape:document-units="mm"
     inkscape:zoom="1"
     inkscape:cx="395"
     inkscape:cy="157.5"
     inkscape:window-width="1920"
     inkscape:window-height="1009"
     inkscape:window-x="-8"
     inkscape:window-y="-8"
     inkscape:window-maximized="1"
     inkscape:current-layer="layer1" /><defs
     id="defs1" /><g
     inkscape:label="Layer 1"
     inkscape:groupmode="layer"
     id="layer1"
     transform="translate(-95.704753,-88.568237)"><path
       id="path1"
       style="opacity:1;fill:#000000;fill-opacity:1;stroke-width:0.448339;stroke-linecap:round;stroke-opacity:0.5;paint-order:fill markers stroke"
       d="m 177.47689,88.568237 c -17.22732,0 -26.53982,8.006671 -26.53982,17.882803 0,9.87611 8.2703,17.8828 26.53982,17.8828 17.01884,0 26.53777,-8.00669 26.53785,-17.8828 -8e-5,-9.876132 -8.26852,-17.882803 -26.53785,-17.882803 z m -58.3887,0.256647 c -10.56605,0 -23.383437,2.450048 -23.383437,10.78101 0,7.092176 8.174027,9.430776 20.198357,10.143226 9.70877,0.57534 19.36068,0.84445 19.34222,4.53534 -0.0222,4.1671 -9.62582,4.83927 -14.8701,4.7556 -16.05694,-0.25673 -20.19834,-7.88322 -20.19834,-7.88322 h -3.104642 v 11.80568 h 3.035692 c 0,0 0.21449,-2.396 2.21787,-2.396 2.86898,0 10.32013,3.19083 18.59913,3.19083 11.76652,0 22.39896,-1.69644 22.39896,-11.73673 0,-15.071624 -39.00621,-9.24113 -39.00621,-14.891159 0,-2.562111 7.18695,-3.943526 15.21485,-3.943526 16.18271,0 19.36713,7.237775 19.36713,7.237775 h 2.85374 V 89.786343 h -3.00889 c 0,0 -7e-4,1.51689 -1.85972,1.51689 -2.42786,0 -5.47845,-2.478349 -17.79661,-2.478349 z m 92.56463,1.976552 v 3.17742 h 3.44556 c 1.01666,0 2.13169,1.538427 2.13169,2.717755 v 20.500969 c 0,0.73006 -0.69025,1.6816 -1.31961,1.6816 h -4.25764 v 3.17742 h 16.47891 v -3.17742 h -4.25764 c -0.62943,0 -1.31961,-0.95154 -1.31961,-1.6816 V 99.358824 l 30.60206,22.697776 h 5.32252 V 96.696611 c 0,-1.179328 1.11692,-2.717755 2.13358,-2.717755 h 3.23683 v -3.17742 h -16.06523 v 3.17742 h 3.23872 c 1.01662,0 2.13358,1.538427 2.13358,2.717755 V 110.25475 L 226.81212,90.801436 Z m 55.56367,0 v 3.17742 h 4.74027 l 17.7602,15.950304 h 0.046 v 7.41398 c 0,0.73006 -0.69222,1.6816 -1.32154,1.6816 h -4.20783 v 3.17933 h 21.56394 v -3.17933 h -4.20783 c -0.62939,0 -1.32154,-0.95154 -1.32154,-1.6816 v -7.41398 l 16.13416,-15.950304 h 4.19827 v -3.17742 h -15.77028 v 3.17742 h 3.24064 c 0.30243,0 0.46306,0.348595 0.24324,0.551595 L 297.03138,104.94948 285.43064,94.530451 c -0.22275,-0.200175 -0.0588,-0.551595 0.24324,-0.551595 h 3.65048 v -3.17742 z m -89.7396,2.041666 c 10.04088,0 16.60333,6.092322 16.60341,13.607938 -8e-5,7.51562 -5.95552,13.60794 -16.60341,13.60794 -11.43036,0 -16.60534,-6.09229 -16.60534,-13.60794 0,-7.515616 7.07744,-13.607938 16.60534,-13.607938 z" /></g></svg>
